<svg width="20" height="35" viewBox="0 0 20 35" fill="none" xmlns="http://www.w3.org/2000/svg">
<path d="M8.396 30.396C6.524 30.252 4.916 29.832 3.572 29.136C2.252 28.416 1.172 27.492 0.332 26.364L3.176 23.448C4.76 25.224 6.584 26.232 8.648 26.472V19.02L7.82 18.876C6.644 18.66 5.624 18.336 4.76 17.904C3.92 17.472 3.224 16.944 2.672 16.32C2.144 15.696 1.748 15 1.484 14.232C1.244 13.464 1.124 12.636 1.124 11.748C1.124 9.708 1.748 8.064 2.996 6.816C4.268 5.568 6.068 4.812 8.396 4.548V0.803998H11.924V4.512C13.484 4.704 14.816 5.1 15.92 5.7C17.048 6.3 17.996 7.08 18.764 8.04L15.92 10.956C14.816 9.636 13.4 8.832 11.672 8.544V15.384L12.572 15.528C14.924 15.96 16.628 16.8 17.684 18.048C18.74 19.272 19.268 20.784 19.268 22.584C19.268 24.624 18.632 26.328 17.36 27.696C16.112 29.04 14.3 29.892 11.924 30.252V34.068H8.396V30.396ZM5.552 11.604C5.552 12.492 5.792 13.176 6.272 13.656C6.752 14.136 7.544 14.508 8.648 14.772V8.436C6.584 8.724 5.552 9.78 5.552 11.604ZM14.876 22.872C14.876 21.912 14.624 21.192 14.12 20.712C13.616 20.208 12.8 19.836 11.672 19.596V26.436C12.752 26.244 13.556 25.848 14.084 25.248C14.612 24.648 14.876 23.856 14.876 22.872Z" fill="#1491FF"/>
</svg>
