<svg width="25" height="24" viewBox="0 0 25 24" fill="none" xmlns="http://www.w3.org/2000/svg">
<path d="M22.3319 12.555L18.3318 18.555C18.2405 18.6919 18.1168 18.8042 17.9716 18.8818C17.8265 18.9594 17.6644 19 17.4998 19L5.49985 19C4.7042 19 3.94114 18.6839 3.37853 18.1213C2.81592 17.5587 2.49985 16.7956 2.49985 16L2.49985 8C2.49985 7.20435 2.81592 6.44129 3.37853 5.87868C3.94114 5.31607 4.7042 5 5.49985 5L17.4999 5C17.6644 4.99998 17.8265 5.04058 17.9716 5.1182C18.1168 5.19583 18.2405 5.30808 18.3319 5.445L22.3319 11.445C22.4415 11.6093 22.5 11.8025 22.5 12C22.5 12.1975 22.4415 12.3907 22.3319 12.555ZM9.39385 12.447C9.46321 12.3082 9.49932 12.1552 9.49932 12C9.49932 11.8448 9.46321 11.6918 9.39385 11.553L8.39385 9.553C8.2752 9.31599 8.06731 9.13577 7.81586 9.05196C7.56441 8.96814 7.28997 8.98758 7.05285 9.106L6.95085 9.164C6.74623 9.29852 6.59808 9.50345 6.53449 9.73992C6.4709 9.9764 6.49629 10.228 6.60585 10.447L7.38185 12L6.60585 13.553C6.49687 13.7889 6.48401 14.058 6.56999 14.3032C6.65596 14.5484 6.83403 14.7506 7.06646 14.8668C7.29889 14.983 7.56743 15.0042 7.8152 14.9258C8.06297 14.8475 8.27051 14.6757 8.39385 14.447L9.39385 12.447ZM13.3939 12.447C13.4632 12.3082 13.4993 12.1552 13.4993 12C13.4993 11.8448 13.4632 11.6918 13.3939 11.553L12.3939 9.553C12.2752 9.31599 12.0673 9.13577 11.8159 9.05196C11.5644 8.96814 11.29 8.98758 11.0529 9.106L10.9509 9.164C10.7462 9.29852 10.5981 9.50345 10.5345 9.73992C10.4709 9.9764 10.4963 10.228 10.6058 10.447L11.3818 12L10.6058 13.553C10.4969 13.7889 10.484 14.058 10.57 14.3032C10.656 14.5484 10.834 14.7506 11.0665 14.8668C11.2989 14.983 11.5674 15.0042 11.8152 14.9258C12.063 14.8475 12.2705 14.6757 12.3938 14.447L13.3939 12.447ZM17.3939 12.447C17.4632 12.3082 17.4993 12.1552 17.4993 12C17.4993 11.8448 17.4632 11.6918 17.3939 11.553L16.3939 9.553C16.2752 9.31599 16.0673 9.13577 15.8159 9.05196C15.5644 8.96814 15.29 8.98758 15.0529 9.106L14.9509 9.164C14.7462 9.29852 14.5981 9.50345 14.5345 9.73993C14.4709 9.9764 14.4963 10.228 14.6058 10.447L15.3818 12L14.6058 13.553C14.4969 13.7889 14.484 14.058 14.57 14.3032C14.656 14.5484 14.834 14.7506 15.0665 14.8668C15.2989 14.983 15.5674 15.0042 15.8152 14.9258C16.063 14.8475 16.2705 14.6757 16.3938 14.447L17.3939 12.447Z" fill="white"/>
</svg>
