<svg width="25" height="25" viewBox="0 0 25 25" fill="none" xmlns="http://www.w3.org/2000/svg">
<g id="Frame" clip-path="url(#clip0_877_76)">
<path id="Vector" d="M22.5 10.6667V16.6667C22.5 17.7276 22.0786 18.745 21.3284 19.4952C20.5783 20.2453 19.5609 20.6667 18.5 20.6667H6.5C5.43913 20.6667 4.42172 20.2453 3.67157 19.4952C2.92143 18.745 2.5 17.7276 2.5 16.6667V10.6667H22.5ZM7.51 14.6667H7.5C7.36868 14.6674 7.23877 14.6939 7.1177 14.7448C6.99662 14.7956 6.88675 14.8699 6.79436 14.9632C6.60776 15.1517 6.50367 15.4065 6.505 15.6717C6.50566 15.8031 6.53217 15.933 6.58303 16.0541C6.6339 16.1751 6.70811 16.285 6.80143 16.3774C6.89475 16.4698 7.00536 16.5429 7.12694 16.5925C7.24851 16.6422 7.37868 16.6674 7.51 16.6667C7.77522 16.6667 8.02957 16.5614 8.21711 16.3739C8.40464 16.1863 8.51 15.932 8.51 15.6667C8.51 15.4015 8.40464 15.1472 8.21711 14.9596C8.02957 14.7721 7.77522 14.6667 7.51 14.6667ZM13.5 14.6667H11.5C11.2348 14.6667 10.9804 14.7721 10.7929 14.9596C10.6054 15.1472 10.5 15.4015 10.5 15.6667C10.5 15.932 10.6054 16.1863 10.7929 16.3739C10.9804 16.5614 11.2348 16.6667 11.5 16.6667H13.5C13.7652 16.6667 14.0196 16.5614 14.2071 16.3739C14.3946 16.1863 14.5 15.932 14.5 15.6667C14.5 15.4015 14.3946 15.1472 14.2071 14.9596C14.0196 14.7721 13.7652 14.6667 13.5 14.6667ZM18.5 4.66675C19.5609 4.66675 20.5783 5.08818 21.3284 5.83832C22.0786 6.58847 22.5 7.60588 22.5 8.66675H2.5C2.5 7.60588 2.92143 6.58847 3.67157 5.83832C4.42172 5.08818 5.43913 4.66675 6.5 4.66675H18.5Z" fill="#1491FF"/>
</g>
<defs>
<clipPath id="clip0_877_76">
<rect width="24" height="24" fill="white" transform="translate(0.5 0.666748)"/>
</clipPath>
</defs>
</svg>
