<svg width="20" height="20" viewBox="0 0 20 20" fill="none" xmlns="http://www.w3.org/2000/svg">
<g clip-path="url(#clip0)">
<path d="M10 20C15.5228 20 20 15.5228 20 10C20 4.47715 15.5228 0 10 0C4.47715 0 0 4.47715 0 10C0 15.5228 4.47715 20 10 20Z" fill="#4D4D4D"/>
<path fill-rule="evenodd" clip-rule="evenodd" d="M6.86768 8.7129L9.99994 5.58065L13.1322 8.71613L14.9548 6.89355L9.99994 1.93549L5.0451 6.89032L6.86768 8.7129ZM1.93542 10L3.75801 8.17742L5.58059 10L3.75801 11.8226L1.93542 10ZM6.86768 11.2871L9.99994 14.4194L13.1322 11.2839L14.958 13.1065L9.99994 18.0645L5.0451 13.1097L5.04188 13.1065L6.86768 11.2871ZM14.4193 10L16.2419 8.17742L18.0645 10L16.2419 11.8226L14.4193 10Z" fill="#F3BA2F"/>
<path fill-rule="evenodd" clip-rule="evenodd" d="M12.0323 10L10 7.9613L8.49679 9.46775L8.32259 9.64195L7.96453 10L7.9613 10.0032L7.96453 10.0065L9.99679 12.0387L12.0323 10.0032V10Z" fill="#F3BA2F"/>
</g>
<defs>
<clipPath id="clip0">
<rect width="20" height="20" fill="white"/>
</clipPath>
</defs>
</svg>
