<svg width="20" height="20" viewBox="0 0 20 20" fill="none" xmlns="http://www.w3.org/2000/svg">
<g clip-path="url(#clip0_6052_47286)">
<circle cx="10" cy="10" r="10" fill="white"/>
<path d="M1.40242 4.85684C1.72177 4.41047 2.01854 3.9488 2.37835 3.53067C3.03278 2.77016 3.77386 2.11839 4.62246 1.57891C5.38371 1.09498 6.1865 0.713537 7.04554 0.44682C8.38315 0.0314657 9.74858 -0.0920459 11.1394 0.0668318C12.156 0.182963 13.1354 0.442757 14.0683 0.8635C14.6329 1.11815 15.1641 1.4328 15.6847 1.77261C16.7337 2.45734 17.5741 3.3487 18.2767 4.3671C19.0271 5.45487 19.5147 6.6649 19.7821 7.96279C19.97 8.87422 20.0492 9.79415 19.9686 10.7201C19.8693 11.8618 19.616 12.9625 19.1428 14.0205C18.7426 14.9154 18.2486 15.7371 17.6161 16.4792C16.9973 17.2052 16.2994 17.8404 15.4975 18.364C14.9514 18.7206 14.3822 19.0389 13.7813 19.2751C12.7759 19.6706 11.7332 19.9379 10.6423 19.9848C9.87413 20.0177 9.11035 20.0048 8.35262 19.8702C7.7018 19.7546 7.06659 19.5859 6.44471 19.3521C5.8414 19.1253 5.25626 18.8566 4.71714 18.517C3.93987 18.0272 3.23917 17.4329 2.61564 16.7481C1.92091 15.9851 1.35761 15.1391 0.926594 14.2047C0.317726 12.8848 0.0183046 11.4932 0.000494235 10.041C-0.00621573 9.49489 0.0563692 8.95295 0.129102 8.41235C0.134321 8.37366 0.129019 8.33361 0.128605 8.29414C0.192225 8.25467 0.186592 8.1856 0.198065 8.12535C0.35985 7.27611 0.632722 6.46448 1.00235 5.68307C1.13332 5.40636 1.31403 5.15386 1.40242 4.85684ZM13.0714 10.2206C13.3422 10.0766 13.5995 9.99403 13.8028 9.81223C14.5864 9.11158 14.7952 7.46252 13.5234 6.66813C13.1271 6.42065 12.7045 6.23723 12.2489 6.05008C12.3242 5.43932 12.5682 4.86778 12.6474 4.24226C12.2715 4.14902 11.9193 4.02526 11.5529 3.9855C11.4031 4.57329 11.2594 5.13682 11.1108 5.72009C10.83 5.63402 10.5408 5.64219 10.2765 5.49318C10.3719 4.89655 10.5985 4.33758 10.6604 3.7388C10.2743 3.67811 9.94731 3.5276 9.57251 3.51139C9.42493 4.10051 9.28212 4.67055 9.13404 5.26166C8.39081 5.14764 7.70842 4.89179 6.95869 4.75422C6.79396 5.12364 6.72102 5.51341 6.65492 5.9281C6.89913 5.98581 7.11144 6.03685 7.32417 6.08611C7.86118 6.21041 8.0083 6.50428 7.88081 6.97436C7.7901 7.30874 7.70826 7.64557 7.62475 7.9819C7.32467 9.1909 7.02699 10.4004 6.72512 11.609C6.65711 11.8812 6.48762 11.9699 6.2116 11.9295C5.93977 11.8897 5.68321 11.7675 5.38363 11.7764C5.25373 12.1923 4.99519 12.5588 4.90366 13.018C5.61756 13.2 6.30823 13.3762 7.0303 13.5603C6.97596 14.1908 6.71493 14.7678 6.63781 15.4028C6.99978 15.4897 7.34049 15.5714 7.69583 15.6567C7.92998 15.0744 7.98399 14.4625 8.20223 13.8602C8.46528 13.9956 8.75712 13.9563 9.01455 14.1267C8.87426 14.7073 8.73447 15.2856 8.59298 15.8712C8.96517 16.0046 9.3283 16.059 9.70128 16.1519C9.85226 15.5464 9.99822 14.9608 10.1394 14.3946C10.2274 14.3493 10.2917 14.3577 10.3524 14.3708C10.937 14.496 11.5283 14.5252 12.1201 14.4595C12.6323 14.4026 13.0869 14.2071 13.4516 13.8221C13.8572 13.3941 14.0609 12.8705 14.159 12.3074C14.2389 11.8486 14.2185 11.3838 13.9494 10.9777C13.7385 10.6595 13.4489 10.4167 13.0714 10.2206ZM8.84543 12.6111C9.56659 12.7904 10.287 12.9822 11.0415 12.8443C11.4439 12.7707 11.7472 12.5653 11.8693 12.1601C11.9844 11.7779 11.9175 11.4306 11.6343 11.1286C11.3398 10.8145 10.9611 10.6512 10.5706 10.5147C10.104 10.3515 9.63103 10.2034 9.12128 10.1631C8.92595 10.9578 8.73637 11.7292 8.54257 12.5175C8.66604 12.5561 8.75451 12.5885 8.84543 12.6111ZM11.3927 9.28082C11.7915 9.22411 12.1222 8.96 12.2194 8.60116C12.3382 8.16238 12.2054 7.77754 11.8507 7.5158C11.4482 7.21881 10.9847 7.06773 10.5058 6.96284C10.3274 6.92374 10.1519 6.81963 9.93601 6.88991C9.76441 7.58798 9.5921 8.28908 9.41416 9.01307C10.0958 9.18534 10.7235 9.37598 11.3927 9.28082Z" fill="#F39321"/>
</g>
<defs>
<clipPath id="clip0_6052_47286">
<rect width="20" height="20" fill="white"/>
</clipPath>
</defs>
</svg>
