<svg width="20" height="20" viewBox="0 0 20 20" fill="none" xmlns="http://www.w3.org/2000/svg">
<g id="Content copy" clip-path="url(#clip0_12_276)">
<g id="Group">
<path id="Vector" d="M12.5 16.6667H4.16667V5.83332C4.16667 5.37499 3.79167 4.99999 3.33333 4.99999C2.875 4.99999 2.5 5.37499 2.5 5.83332V16.6667C2.5 17.5833 3.25 18.3333 4.16667 18.3333H12.5C12.9583 18.3333 13.3333 17.9583 13.3333 17.5C13.3333 17.0417 12.9583 16.6667 12.5 16.6667ZM16.6667 13.3333V3.33332C16.6667 2.41666 15.9167 1.66666 15 1.66666H7.5C6.58333 1.66666 5.83333 2.41666 5.83333 3.33332V13.3333C5.83333 14.25 6.58333 15 7.5 15H15C15.9167 15 16.6667 14.25 16.6667 13.3333ZM15 13.3333H7.5V3.33332H15V13.3333Z" fill="white" fill-opacity="0.6"/>
</g>
</g>
<defs>
<clipPath id="clip0_12_276">
<rect width="20" height="20" fill="white"/>
</clipPath>
</defs>
</svg>
