<svg width="24" height="25" viewBox="0 0 24 25" fill="none" xmlns="http://www.w3.org/2000/svg">
<g id="Frame" clip-path="url(#clip0_876_8)">
<path id="Vector" d="M6 8.66675L8 10.6667L12 6.66675L16 10.6667L18 8.66675L12 2.66675L6 8.66675Z" fill="#1492FF"/>
<path id="Vector_2" d="M6 16.6667L8 14.6667L12 18.6667L15.5 15.1667L17.5 17.1667L12 22.6667L6 16.6667Z" fill="#1492FF"/>
<path id="Vector_3" d="M20 10.6667L22 12.6667L20 14.6667L18 12.6667L20 10.6667Z" fill="#1492FF"/>
<path id="Vector_4" d="M4 10.6667L6 12.6667L4 14.6667L2 12.6667L4 10.6667Z" fill="#1492FF"/>
<path id="Vector_5" d="M12 10.6667L14 12.6667L12 14.6667L10 12.6667L12 10.6667Z" fill="#1492FF"/>
</g>
<defs>
<clipPath id="clip0_876_8">
<rect width="24" height="24" fill="white" transform="translate(0 0.666748)"/>
</clipPath>
</defs>
</svg>
