<svg width="24" height="25" viewBox="0 0 24 25" fill="none" xmlns="http://www.w3.org/2000/svg">
<g id="Frame" clip-path="url(#clip0_877_69)">
<path id="Vector" d="M8 10.6667V3.66675L6 5.66675" stroke="#1491FF" stroke-width="2" stroke-linecap="round" stroke-linejoin="round"/>
<path id="Vector_2" d="M6 16.6667C6 16.1363 6.21071 15.6276 6.58579 15.2525C6.96086 14.8775 7.46957 14.6667 8 14.6667C8.53043 14.6667 9.03914 14.8775 9.41421 15.2525C9.78929 15.6276 10 16.1363 10 16.6667C10 17.2577 9.399 18.1267 9 18.6667L6 21.6667H10" stroke="#1491FF" stroke-width="2" stroke-linecap="round" stroke-linejoin="round"/>
<path id="Vector_3" d="M15 14.6667C15 15.0623 15.1173 15.449 15.3371 15.7779C15.5568 16.1068 15.8692 16.3631 16.2346 16.5145C16.6001 16.6659 17.0022 16.7055 17.3902 16.6283C17.7781 16.5511 18.1345 16.3607 18.4142 16.081C18.6939 15.8013 18.8844 15.4449 18.9616 15.0569C19.0387 14.669 18.9991 14.2668 18.8478 13.9014C18.6964 13.5359 18.44 13.2236 18.1111 13.0038C17.7822 12.784 17.3956 12.6667 17 12.6667C17.3956 12.6667 17.7822 12.5495 18.1111 12.3297C18.44 12.1099 18.6964 11.7976 18.8478 11.4321C18.9991 11.0667 19.0387 10.6645 18.9616 10.2766C18.8844 9.88861 18.6939 9.53224 18.4142 9.25254C18.1345 8.97283 17.7781 8.78235 17.3902 8.70518C17.0022 8.62801 16.6001 8.66761 16.2346 8.81899C15.8692 8.97037 15.5568 9.22671 15.3371 9.55561C15.1173 9.88451 15 10.2712 15 10.6667" stroke="#1491FF" stroke-width="2" stroke-linecap="round" stroke-linejoin="round"/>
<path id="Vector_4" d="M6.5 10.6667H9.5" stroke="#1491FF" stroke-width="2" stroke-linecap="round" stroke-linejoin="round"/>
</g>
<defs>
<clipPath id="clip0_877_69">
<rect width="24" height="24" fill="white" transform="translate(0 0.666748)"/>
</clipPath>
</defs>
</svg>
