<svg width="25" height="25" viewBox="0 0 25 25" fill="none" xmlns="http://www.w3.org/2000/svg">
<path id="Vector" d="M12.0996 0C5.41393 0 0 5.42604 0 12.1117C0 18.7974 5.41393 24.2234 12.0996 24.2234C18.7974 24.2234 24.2234 18.7974 24.2234 12.1117C24.2234 5.42604 18.7974 0 12.0996 0ZM20.493 7.26702H16.92C16.5325 5.75306 15.9753 4.29965 15.2486 2.95526C17.4772 3.71829 19.3303 5.26859 20.493 7.26702ZM12.1117 2.47079C13.117 3.92419 13.9042 5.53505 14.425 7.26702H9.79837C10.3192 5.53505 11.1064 3.92419 12.1117 2.47079ZM2.73724 14.534C2.54346 13.7589 2.42234 12.9474 2.42234 12.1117C2.42234 11.276 2.54346 10.4645 2.73724 9.68936H6.831C6.73411 10.4887 6.66144 11.2881 6.66144 12.1117C6.66144 12.9353 6.73411 13.7347 6.831 14.534H2.73724ZM3.7304 16.9564H7.30336C7.69093 18.4703 8.24807 19.9237 8.97477 21.2681C6.74622 20.5051 4.89313 18.9669 3.7304 16.9564ZM7.30336 7.26702H3.7304C4.89313 5.25648 6.74622 3.71829 8.97477 2.95526C8.24807 4.29965 7.69093 5.75306 7.30336 7.26702ZM12.1117 21.7526C11.1064 20.2992 10.3192 18.6884 9.79837 16.9564H14.425C13.9042 18.6884 13.117 20.2992 12.1117 21.7526ZM14.9458 14.534H9.27756C9.16856 13.7347 9.08378 12.9353 9.08378 12.1117C9.08378 11.2881 9.16856 10.4766 9.27756 9.68936H14.9458C15.0548 10.4766 15.1396 11.2881 15.1396 12.1117C15.1396 12.9353 15.0548 13.7347 14.9458 14.534ZM15.2486 21.2681C15.9753 19.9237 16.5325 18.4703 16.92 16.9564H20.493C19.3303 18.9548 17.4772 20.5051 15.2486 21.2681ZM17.3924 14.534C17.4893 13.7347 17.562 12.9353 17.562 12.1117C17.562 11.2881 17.4893 10.4887 17.3924 9.68936H21.4862C21.6799 10.4645 21.8011 11.276 21.8011 12.1117C21.8011 12.9474 21.6799 13.7589 21.4862 14.534H17.3924Z" fill="#1491FF"/>
</svg>
