<svg width="28" height="28" viewBox="0 0 28 28" fill="none" xmlns="http://www.w3.org/2000/svg">
<g id="Group 427318777">
<path id="Vector" d="M12.5248 0.0182453C12.8083 -0.00358043 13.0935 0.00395735 13.3776 0.00705245C14.0715 -0.00654016 14.7678 0.00371128 15.462 0.0036436C15.4467 1.13219 15.3806 2.67245 15.4792 3.77847C15.8049 3.7887 16.1599 3.88697 16.4745 3.96956C20.4566 5.01475 23.6708 8.31569 24.1974 12.5092C24.5551 12.5279 24.9153 12.5199 25.2735 12.5199L26.9256 12.5195C27.2816 12.5194 27.6393 12.5098 27.9945 12.5364C27.9302 13.2734 27.9387 14.7463 28 15.4754C26.8545 15.4257 25.335 15.4162 24.1972 15.4887C24.1594 16.9266 23.2551 18.9043 22.444 20.0658C20.7896 22.4353 18.2869 23.9461 15.4686 24.4343C15.4515 24.6042 15.459 24.781 15.459 24.9519L15.4593 25.8225C15.4598 26.5464 15.4411 27.2751 15.4677 27.9984L14.6301 28L12.4895 27.9967C12.6028 26.9112 12.4873 25.5266 12.5226 24.3974C8.43372 23.6315 5.18302 20.9957 4.04505 16.8525C3.92076 16.3999 3.80003 15.9324 3.77195 15.4621C2.51677 15.4874 1.25675 15.4669 0.00116298 15.4648C0.0325197 14.4796 -0.0275034 13.4892 0.0173588 12.5048C0.472353 12.5397 0.939058 12.5204 1.39544 12.5201L3.71948 12.5188C4.70305 7.79807 7.70549 4.65362 12.5039 3.72604C12.5433 2.50784 12.4449 1.21566 12.5248 0.0182453ZM13.6642 4.08491L13.3418 4.09286C13.3025 4.91944 13.3419 5.75401 13.3297 6.58194C9.69097 6.95784 7.02473 9.80324 6.53905 13.4012C6.22651 13.4194 5.91283 13.4137 5.59993 13.4137L3.97085 13.4152C3.95112 13.8383 3.95725 14.2631 3.96065 14.6866C4.81972 14.6539 5.6841 14.7129 6.54148 14.6591C6.58463 14.996 6.62578 15.3303 6.70277 15.6614C7.42801 18.7812 10.1846 21.2305 13.345 21.5483C13.2971 22.3211 13.3066 23.3627 13.3452 24.1354C13.6527 24.1486 13.9602 24.148 14.2679 24.1472L14.5776 24.1378C14.6222 23.2724 14.6095 22.4084 14.6089 21.542C17.7763 21.3191 20.6072 18.6402 21.293 15.5358C21.3549 15.2557 21.3689 14.9687 21.4232 14.6875C22.2706 14.648 23.1331 14.6672 23.9815 14.6772C23.9819 14.2576 23.9755 13.8365 23.9887 13.4172C23.2213 13.4066 22.1664 13.4836 21.4312 13.4062C21.3675 13.0417 21.3247 12.6819 21.2334 12.3222C20.4805 9.35676 18.2321 7.43447 15.3808 6.69866C15.1452 6.63781 14.8847 6.5596 14.6416 6.54526C14.6155 5.73266 14.6859 4.90209 14.6178 4.09318C14.3006 4.08071 13.9816 4.07143 13.6642 4.08491Z" fill="#1491FF"/>
<path id="$" d="M13.2603 17.4117C12.6397 17.3695 12.134 17.2922 11.743 17.1797C11.3604 17.0602 11.0757 16.9617 10.8887 16.8844L11.4369 15.6716C11.7345 15.7911 12.0872 15.9001 12.4952 15.9985C12.9117 16.097 13.3495 16.1462 13.8085 16.1462C14.327 16.1462 14.6798 16.0899 14.8668 15.9774C15.0623 15.8579 15.1601 15.6927 15.1601 15.4818C15.1601 15.3482 15.1218 15.2357 15.0453 15.1443C14.9688 15.0459 14.8583 14.958 14.7138 14.8806C14.5693 14.8033 14.3865 14.7295 14.1655 14.6592C13.9445 14.5818 13.6895 14.501 13.4005 14.4166C13.12 14.3322 12.8437 14.2408 12.5717 14.1424C12.3082 14.037 12.066 13.9104 11.845 13.7628C11.6324 13.6151 11.4582 13.4358 11.3222 13.2249C11.1947 13.0069 11.1309 12.7468 11.1309 12.4445C11.1309 12.2125 11.1692 11.991 11.2457 11.7801C11.3307 11.5621 11.4582 11.3653 11.6282 11.1895C11.7982 11.0137 12.0192 10.8661 12.2912 10.7466C12.5632 10.62 12.8862 10.5286 13.2603 10.4724V9.33337H14.8668V10.4302C15.3088 10.4653 15.6871 10.5181 16.0016 10.5884C16.3246 10.6587 16.5796 10.729 16.7666 10.7993L16.3714 12.0648C16.0909 11.9664 15.7636 11.882 15.3896 11.8117C15.0241 11.7414 14.6373 11.7063 14.2293 11.7063C13.8213 11.7063 13.528 11.7625 13.3495 11.875C13.171 11.9875 13.0818 12.1351 13.0818 12.3179C13.0818 12.4304 13.1073 12.5289 13.1583 12.6132C13.2178 12.6906 13.307 12.7609 13.426 12.8241C13.545 12.8874 13.6895 12.9507 13.8595 13.014C14.038 13.0702 14.2505 13.1335 14.4971 13.2038C14.8711 13.3163 15.2153 13.4393 15.5298 13.5729C15.8528 13.7065 16.1291 13.8612 16.3586 14.037C16.5966 14.2057 16.7794 14.4061 16.9069 14.6381C17.0429 14.8701 17.1109 15.1408 17.1109 15.4501C17.1109 15.6611 17.0726 15.872 16.9961 16.0829C16.9196 16.2868 16.7921 16.4766 16.6136 16.6524C16.4351 16.8282 16.2014 16.9793 15.9124 17.1059C15.6318 17.2324 15.2833 17.3238 14.8668 17.3801V18.6667H13.2603V17.4117Z" fill="#1491FF"/>
</g>
</svg>
