<svg width="72" height="72" viewBox="0 0 72 72" fill="none" xmlns="http://www.w3.org/2000/svg">
<path d="M32.2067 0.0469165C32.9357 -0.00920681 33.6691 0.010176 34.3995 0.0181349C36.1839 -0.0168176 37.9744 0.0095433 39.7595 0.00936925C39.7202 2.91136 39.5502 6.87203 39.8036 9.71605C40.641 9.74237 41.5539 9.99506 42.3631 10.2074C52.6027 12.8951 60.8678 21.3832 62.2219 32.1665C63.1418 32.2147 64.0678 32.1941 64.9889 32.1939L69.2374 32.193C70.1528 32.1927 71.0724 32.1681 71.9859 32.2365C71.8205 34.1316 71.8422 37.9191 72 39.7939C69.0544 39.6661 65.1471 39.6415 62.2212 39.8281C62.1241 43.5255 59.7989 48.6111 57.7133 51.5978C53.459 57.6907 47.0233 61.5758 39.7765 62.831C39.7324 63.2681 39.7518 63.7226 39.7516 64.162L39.7526 66.4007C39.7538 68.2622 39.7058 70.1359 39.7742 71.9959L37.6202 72L32.1159 71.9915C32.4072 69.2003 32.1103 65.6397 32.2009 62.7361C21.6867 60.7666 13.3278 53.989 10.4016 43.3349C10.0819 42.1711 9.7715 40.9689 9.69931 39.7597C6.47168 39.8248 3.23165 39.7719 0.00299053 39.7667C0.083622 37.2331 -0.0707232 34.6866 0.0446369 32.1553C1.21462 32.245 2.41472 32.1952 3.58828 32.1946L9.56438 32.1912C12.0936 20.0522 19.8141 11.9664 32.153 9.58124C32.2542 6.44872 32.0012 3.12598 32.2067 0.0469165ZM35.1366 10.504L34.3076 10.5245C34.2065 12.65 34.3078 14.796 34.2763 16.925C24.9196 17.8916 18.0636 25.2083 16.8147 34.4602C16.011 34.5071 15.2044 34.4923 14.3998 34.4925L10.2108 34.4961C10.16 35.5843 10.1758 36.6765 10.1845 37.7656C12.3936 37.6816 14.6163 37.8332 16.821 37.6949C16.9319 38.5612 17.0377 39.4206 17.2357 40.2722C19.1006 48.2945 26.1889 54.5926 34.3157 55.41C34.1926 57.3972 34.217 60.0755 34.3162 62.0625C35.107 62.0964 35.8975 62.0948 36.6888 62.0927L37.4853 62.0685C37.6 59.8434 37.5673 57.6217 37.5657 55.3937C45.7106 54.8206 52.9899 47.932 54.7534 39.9493C54.9126 39.2289 54.9486 38.4911 55.0882 37.768C57.2672 37.6662 59.4852 37.7157 61.6667 37.7414C61.6678 36.6624 61.6513 35.5795 61.6852 34.5014C59.7118 34.4741 56.9993 34.6722 55.1087 34.473C54.945 33.5357 54.835 32.6105 54.6001 31.6855C52.6643 24.0602 46.8826 19.1172 39.5507 17.2251C38.9447 17.0686 38.275 16.8675 37.6499 16.8307C37.5828 14.7411 37.7639 12.6054 37.5887 10.5253C36.773 10.4933 35.9526 10.4694 35.1366 10.504Z" fill="#1491FF"/>
<path d="M34.0984 44.7729C32.5027 44.6644 31.2022 44.4655 30.1967 44.1763C29.2131 43.8689 28.4809 43.6158 28 43.4169L29.4098 40.2983C30.1749 40.6056 31.082 40.8859 32.1311 41.139C33.2022 41.3921 34.3279 41.5186 35.5082 41.5186C36.8415 41.5186 37.7486 41.374 38.2295 41.0847C38.7322 40.7774 38.9836 40.3525 38.9836 39.8102C38.9836 39.4667 38.8852 39.1774 38.6885 38.9424C38.4918 38.6893 38.2077 38.4633 37.8361 38.2644C37.4645 38.0655 36.9945 37.8757 36.4262 37.6949C35.8579 37.496 35.2022 37.2881 34.459 37.0712C33.7377 36.8542 33.0273 36.6192 32.3279 36.3661C31.6503 36.0949 31.0273 35.7695 30.459 35.3898C29.9126 35.0102 29.4645 34.5492 29.1148 34.0068C28.7869 33.4463 28.623 32.7774 28.623 32C28.623 31.4034 28.7213 30.8339 28.918 30.2915C29.1366 29.7311 29.4645 29.2249 29.9016 28.7729C30.3388 28.3209 30.9071 27.9412 31.6066 27.6339C32.306 27.3085 33.1366 27.0734 34.0984 26.9288V24H38.2295V26.8203C39.3661 26.9107 40.3388 27.0463 41.1475 27.2271C41.9781 27.4079 42.6339 27.5887 43.1148 27.7695L42.0984 31.0237C41.377 30.7706 40.5355 30.5537 39.5738 30.3729C38.6339 30.1921 37.6393 30.1017 36.5902 30.1017C35.541 30.1017 34.7869 30.2463 34.3279 30.5356C33.8689 30.8249 33.6393 31.2045 33.6393 31.6746C33.6393 31.9638 33.7049 32.2169 33.8361 32.4339C33.9891 32.6328 34.2186 32.8136 34.5246 32.9763C34.8306 33.139 35.2022 33.3017 35.6393 33.4644C36.0984 33.609 36.6448 33.7718 37.2787 33.9525C38.2404 34.2418 39.1257 34.5582 39.9344 34.9017C40.765 35.2452 41.4754 35.6429 42.0656 36.0949C42.6776 36.5288 43.1475 37.0441 43.4754 37.6407C43.8251 38.2373 44 38.9333 44 39.7288C44 40.2712 43.9016 40.8136 43.7049 41.3559C43.5082 41.8802 43.1803 42.3684 42.7213 42.8203C42.2623 43.2723 41.6612 43.661 40.918 43.9864C40.1967 44.3119 39.3005 44.5469 38.2295 44.6915V48H34.0984V44.7729Z" fill="#1491FF"/>
</svg>
