<svg width="23" height="24" viewBox="0 0 23 24" fill="none" xmlns="http://www.w3.org/2000/svg">
<g id="coin-sniper-bot">
<path id="Vector" d="M10.1976 1.89462C10.4023 1.87903 10.6083 1.88442 10.8134 1.88663C11.3144 1.87692 11.8172 1.88424 12.3184 1.88419C12.3074 2.69018 12.2597 3.79019 12.3308 4.58008C12.566 4.58739 12.8223 4.65757 13.0495 4.71656C15.9247 5.46301 18.2454 7.82045 18.6257 10.8154C18.884 10.8287 19.144 10.823 19.4026 10.823L20.5956 10.8227C20.8526 10.8226 21.1108 10.8158 21.3673 10.8348C21.3209 11.3611 21.327 12.413 21.3713 12.9338C20.5442 12.8982 19.447 12.8914 18.6255 12.9432C18.5982 13.9702 17.9453 15.3826 17.3597 16.2121C16.1651 17.9043 14.358 18.9834 12.3232 19.332C12.3108 19.4534 12.3163 19.5796 12.3162 19.7016L12.3165 20.3234C12.3168 20.8404 12.3033 21.3608 12.3225 21.8774L11.7177 21.8785L10.1722 21.8761C10.2539 21.1009 10.1706 20.112 10.196 19.3056C7.24373 18.7586 4.89661 16.8762 4.07496 13.9172C3.98522 13.594 3.89805 13.2601 3.87778 12.9243C2.97149 12.9423 2.06172 12.9276 1.15514 12.9262C1.17778 12.2225 1.13444 11.5153 1.16683 10.8123C1.49535 10.8372 1.83233 10.8233 2.16185 10.8231L3.83989 10.8222C4.55006 7.45079 6.71793 5.20509 10.1826 4.54264C10.211 3.67263 10.1399 2.74978 10.1976 1.89462ZM11.0204 4.79893L10.7876 4.80461C10.7592 5.39494 10.7876 5.99097 10.7788 6.58225C8.15151 6.85071 6.2264 8.88283 5.87572 11.4524C5.65006 11.4654 5.42356 11.4613 5.19764 11.4614L4.02139 11.4624C4.00714 11.7646 4.01157 12.0679 4.01403 12.3704C4.6343 12.3471 5.25842 12.3892 5.87747 12.3508C5.90863 12.5914 5.93834 12.8301 5.99393 13.0666C6.51758 15.2947 8.50791 17.0439 10.7899 17.2709C10.7553 17.8228 10.7621 18.5667 10.79 19.1185C11.012 19.1279 11.234 19.1275 11.4562 19.1269L11.6798 19.1202C11.712 18.5022 11.7029 17.8852 11.7024 17.2664C13.9894 17.1072 16.0334 15.194 16.5286 12.9769C16.5733 12.7768 16.5834 12.5719 16.6226 12.3711C17.2344 12.3428 17.8572 12.3566 18.4698 12.3637C18.4701 12.064 18.4654 11.7633 18.475 11.4638C17.9209 11.4563 17.1592 11.5113 16.6283 11.456C16.5824 11.1956 16.5515 10.9387 16.4855 10.6818C15.942 8.56396 14.3185 7.19111 12.2598 6.66562C12.0896 6.62215 11.9016 6.5663 11.7261 6.55606C11.7072 5.97572 11.7581 5.38254 11.7089 4.80484C11.4798 4.79594 11.2495 4.78931 11.0204 4.79893Z" fill="#7A8BAB"/>
<path id="Vector_2" d="M11.2651 13.0665C11.0504 13.0499 10.8347 13.06 10.6199 13.0456C8.63397 12.912 7.82916 10.4796 9.14084 9.07375C9.84572 8.31833 10.3463 8.39572 11.2938 8.39656C11.9423 8.39713 12.5953 8.41299 13.2432 8.3908L13.2535 8.39062C13.2941 8.44815 13.2628 9.91983 13.2463 10.1075C12.5602 10.1701 11.8627 10.0792 11.1734 10.1323C11.1607 10.385 11.1697 10.6469 11.1869 10.8992C11.3944 10.8894 11.6035 10.8846 11.8112 10.8841C13.9414 10.8794 14.6371 13.558 13.1822 14.9832C12.414 15.7357 11.8075 15.6152 10.8087 15.6154L8.79898 15.6126L8.76906 15.608C8.75636 15.5842 8.76805 13.9075 8.76743 13.7617C9.59844 13.7615 10.4318 13.7478 11.2625 13.7656C11.266 13.5326 11.2676 13.2995 11.2651 13.0665Z" fill="#7A8BAB"/>
</g>
</svg>
