<svg width="56" height="55" viewBox="0 0 56 55" fill="none" xmlns="http://www.w3.org/2000/svg">
<g id="Frame" clip-path="url(#clip0_621_5887)">
<path id="Vector" d="M8.5858 38.1156C7.80474 38.8967 7.80473 40.163 8.58578 40.944C9.36682 41.7251 10.6331 41.7251 11.4142 40.9441L8.5858 38.1156ZM20.6371 28.8929L22.0513 27.4787C21.2702 26.6977 20.0039 26.6977 19.2229 27.4787L20.6371 28.8929ZM27.1847 35.4406L25.7705 36.8548C26.5515 37.6358 27.8179 37.6358 28.5989 36.8548L27.1847 35.4406ZM51.6255 13C51.6255 11.8954 50.7301 11 49.6255 11L31.6255 10.9999C30.5209 10.9999 29.6255 11.8953 29.6255 12.9999C29.6255 14.1045 30.5209 14.9999 31.6255 14.9999L47.6255 15L47.6254 31C47.6254 32.1046 48.5208 33 49.6254 33C50.7299 33 51.6254 32.1046 51.6254 31L51.6255 13ZM11.4142 40.9441L22.0513 30.3072L19.2229 27.4787L8.5858 38.1156L11.4142 40.9441ZM19.2229 30.3071L25.7705 36.8548L28.5989 34.0263L22.0513 27.4787L19.2229 30.3071ZM28.5989 36.8548L51.0397 14.4142L48.2113 11.5858L25.7705 34.0263L28.5989 36.8548Z" fill="currentColor"/>
</g>
<defs>
<clipPath id="clip0_621_5887">
<rect width="55" height="55" fill="currentColor" transform="translate(0.5)"/>
</clipPath>
</defs>
</svg>
