<svg width="20" height="20" viewBox="0 0 20 20" fill="none" xmlns="http://www.w3.org/2000/svg">
<circle cx="10" cy="10" r="10" fill="#8247E5"/>
<path fill-rule="evenodd" clip-rule="evenodd" d="M6.8134 4.55103C6.74729 4.57562 6.05379 4.95167 5.27229 5.38673C4.26711 5.94632 3.82199 6.20439 3.75098 6.26882C3.69383 6.32067 3.62572 6.40901 3.59287 6.4739L3.53516 6.5879V8.35548V10.1231L3.59219 10.2357C3.70055 10.4497 3.73539 10.4722 5.30041 11.3423C6.09943 11.7865 6.79297 12.1619 6.8416 12.1765C6.97283 12.216 7.21617 12.2106 7.34514 12.1652C7.44795 12.1291 8.41582 11.5947 9.83398 10.791C11.4068 9.89966 12.5682 9.2571 12.6641 9.22525C12.7424 9.19925 12.8114 9.19276 12.9464 9.19868C13.1709 9.20855 13.1696 9.20796 14.1159 9.73534C14.9034 10.1743 14.9973 10.2414 15.1033 10.441C15.1359 10.5025 15.1722 10.6049 15.1838 10.6686C15.2126 10.8255 15.2125 12.4098 15.1837 12.5658C15.1534 12.73 15.0775 12.8725 14.9625 12.9808C14.8349 13.101 13.2793 13.9936 13.1297 14.0324C12.994 14.0676 12.8134 14.0655 12.6842 14.0272C12.6259 14.0099 12.2186 13.7967 11.7792 13.5535C10.8973 13.0654 10.8111 13.0035 10.7017 12.7793L10.6445 12.6621L10.6348 12.0329L10.625 11.4036L9.99539 11.7594L9.36578 12.1152L9.36551 12.6758C9.36533 13.0171 9.37381 13.2768 9.38717 13.3399C9.42652 13.5256 9.51824 13.6727 9.6582 13.7748C9.82486 13.8963 12.611 15.4325 12.7124 15.4588C12.8643 15.4982 13.0663 15.4905 13.2061 15.4399C13.2722 15.416 13.966 15.0405 14.7478 14.6055C16.2976 13.743 16.3137 13.7324 16.4283 13.4991L16.4844 13.3848V11.627V9.86915L16.4273 9.75653C16.3197 9.54407 16.2822 9.51968 14.7118 8.64109C13.9088 8.19183 13.21 7.8112 13.1591 7.79526C13.0266 7.75386 12.7963 7.75525 12.666 7.79823C12.6069 7.81775 12.1323 8.07728 11.6113 8.37497C11.0903 8.67269 10.3521 9.0878 9.9707 9.29745C9.58936 9.50712 8.86104 9.91704 8.35221 10.2084C7.84338 10.4998 7.38256 10.7514 7.32814 10.7675C7.18963 10.8086 6.95438 10.8053 6.82436 10.7604C6.70717 10.7199 5.22898 9.89392 5.084 9.7879C4.9741 9.70755 4.84551 9.522 4.80486 9.38513C4.76002 9.23411 4.76133 7.47314 4.80641 7.319C4.84434 7.18929 4.92984 7.05116 5.026 6.96429C5.12775 6.87235 6.70307 6.00069 6.83873 5.96126C6.95881 5.92634 7.18445 5.93101 7.31664 5.97112C7.35543 5.9829 7.75094 6.19454 8.19555 6.44144C8.93846 6.85398 9.01361 6.90044 9.12377 7.01528C9.32721 7.22737 9.33361 7.25509 9.34547 7.97636L9.35547 8.58359L9.97633 8.2321L10.5972 7.88062L10.5916 7.24355L10.5859 6.6065L10.5219 6.4764C10.4817 6.39478 10.4226 6.31491 10.3634 6.26202C10.2766 6.18448 7.56697 4.63308 7.37916 4.55337C7.33473 4.53452 7.22982 4.51866 7.11914 4.51407C6.96158 4.50751 6.91547 4.5131 6.8134 4.55103Z" fill="white"/>
</svg>
