<svg width="25" height="25" viewBox="0 0 25 25" fill="none" xmlns="http://www.w3.org/2000/svg">
<g clip-path="url(#clip0_761_74)">
<path d="M2.19351 16.2199C1.65401 14.9175 1.37633 13.5215 1.37633 12.1117C1.37633 10.7019 1.65401 9.30593 2.19351 8.00345C2.73301 6.70098 3.52378 5.51752 4.52065 4.52065C5.51752 3.52378 6.70098 2.73301 8.00345 2.19351C9.30593 1.65401 10.7019 1.37633 12.1117 1.37633C13.5215 1.37633 14.9175 1.65401 16.2199 2.19351C17.5224 2.73301 18.7059 3.52378 19.7028 4.52065C20.6996 5.51752 21.4904 6.70098 22.0299 8.00345C22.5694 9.30593 22.8471 10.7019 22.8471 12.1117C22.8471 13.5215 22.5694 14.9175 22.0299 16.2199C21.4904 17.5224 20.6996 18.7059 19.7028 19.7028C18.7059 20.6996 17.5224 21.4904 16.2199 22.0299C14.9175 22.5694 13.5215 22.8471 12.1117 22.8471C10.7019 22.8471 9.30593 22.5694 8.00345 22.0299C6.70098 21.4904 5.51752 20.6996 4.52065 19.7028C3.52378 18.7059 2.73301 17.5224 2.19351 16.2199Z" stroke="#1491FF" stroke-width="2.75266" stroke-linecap="round" stroke-linejoin="round"/>
<path d="M8.80859 9.90951C8.80859 10.7856 9.15661 11.6258 9.77608 12.2452C10.3955 12.8647 11.2357 13.2127 12.1118 13.2127C12.9878 13.2127 13.828 12.8647 14.4475 12.2452C15.067 11.6258 15.415 10.7856 15.415 9.90951C15.415 9.03345 15.067 8.19327 14.4475 7.57381C13.828 6.95434 12.9878 6.60632 12.1118 6.60632C11.2357 6.60632 10.3955 6.95434 9.77608 7.57381C9.15661 8.19327 8.80859 9.03345 8.80859 9.90951Z" stroke="#1491FF" stroke-width="2.75266" stroke-linecap="round" stroke-linejoin="round"/>
<path d="M6.60547 19.8146C6.83907 19.1792 7.31708 18.6222 7.96858 18.2264C8.62008 17.8305 9.41037 17.6169 10.2222 17.6171H13.9975C14.8104 17.6168 15.6016 17.831 16.2536 18.2278C16.9056 18.6245 17.3834 19.1827 17.6161 19.8192" stroke="#1491FF" stroke-width="2.75266" stroke-linecap="round" stroke-linejoin="round"/>
</g>
<defs>
<clipPath id="clip0_761_74">
<rect width="24.2234" height="24.2234" fill="white"/>
</clipPath>
</defs>
</svg>
