<svg width="18" height="18" viewBox="0 0 18 18" fill="none" xmlns="http://www.w3.org/2000/svg">
<g id="Frame" clip-path="url(#clip0_22_1637)">
<g id="Group 427318797">
<path id="Vector" d="M1.62996 12.0525C1.22907 11.0847 1.02273 10.0473 1.02273 8.99976C1.02273 7.95217 1.22907 6.91483 1.62996 5.94699C2.03086 4.97914 2.61846 4.09973 3.35922 3.35897C4.09997 2.61821 4.97938 2.03061 5.94723 1.62972C6.91508 1.22882 7.95241 1.02248 9 1.02248C10.0476 1.02248 11.0849 1.22882 12.0528 1.62972C13.0206 2.03061 13.9 2.61821 14.6408 3.35897C15.3815 4.09973 15.9691 4.97914 16.37 5.94699C16.7709 6.91483 16.9773 7.95217 16.9773 8.99976C16.9773 10.0473 16.7709 11.0847 16.37 12.0525C15.9691 13.0204 15.3815 13.8998 14.6408 14.6405C13.9 15.3813 13.0206 15.9689 12.0528 16.3698C11.0849 16.7707 10.0476 16.977 9 16.977C7.95241 16.977 6.91508 16.7707 5.94723 16.3698C4.97938 15.9689 4.09998 15.3813 3.35922 14.6405C2.61846 13.8998 2.03086 13.0204 1.62996 12.0525Z" stroke="white" stroke-width="2.04545" stroke-linecap="round" stroke-linejoin="round"/>
<path id="Vector_2" d="M6.54492 7.36348C6.54492 8.01447 6.80352 8.63879 7.26384 9.09911C7.72416 9.55942 8.34848 9.81803 8.99947 9.81803C9.65045 9.81803 10.2748 9.55942 10.7351 9.09911C11.1954 8.63879 11.454 8.01447 11.454 7.36348C11.454 6.7125 11.1954 6.08817 10.7351 5.62786C10.2748 5.16754 9.65045 4.90894 8.99947 4.90894C8.34848 4.90894 7.72416 5.16754 7.26384 5.62786C6.80352 6.08817 6.54492 6.7125 6.54492 7.36348Z" stroke="white" stroke-width="2.04545" stroke-linecap="round" stroke-linejoin="round"/>
<path id="Vector_3" d="M4.9082 14.7235C5.08179 14.2514 5.43699 13.8375 5.92111 13.5434C6.40523 13.2492 6.99247 13.0904 7.59573 13.0906H10.4011C11.0051 13.0904 11.5931 13.2496 12.0776 13.5444C12.562 13.8392 12.9171 14.254 13.09 14.7269" stroke="white" stroke-width="2.04545" stroke-linecap="round" stroke-linejoin="round"/>
</g>
</g>
<defs>
<clipPath id="clip0_22_1637">
<rect width="18" height="18" fill="white"/>
</clipPath>
</defs>
</svg>
