<svg width="255" height="254" viewBox="0 0 255 254" fill="none" xmlns="http://www.w3.org/2000/svg">
<path id="Vector" d="M0.768555 0.269043H8.44923V7.94972H0.768555V0.269043ZM8.44923 0.269043H16.1299V7.94972H8.44923V0.269043ZM16.1299 0.269043H23.8106V7.94972H16.1299V0.269043ZM23.8106 0.269043H31.4913V7.94972H23.8106V0.269043ZM31.4913 0.269043H39.1719V7.94972H31.4913V0.269043ZM39.1719 0.269043H46.8526V7.94972H39.1719V0.269043ZM46.8526 0.269043H54.5333V7.94972H46.8526V0.269043ZM62.214 0.269043H69.8946V7.94972H62.214V0.269043ZM85.256 0.269043H92.9367V7.94972H85.256V0.269043ZM108.298 0.269043H115.979V7.94972H108.298V0.269043ZM115.979 0.269043H123.659V7.94972H115.979V0.269043ZM123.659 0.269043H131.34V7.94972H123.659V0.269043ZM146.701 0.269043H154.382V7.94972H146.701V0.269043ZM162.063 0.269043H169.743V7.94972H162.063V0.269043ZM177.424 0.269043H185.105V7.94972H177.424V0.269043ZM185.105 0.269043H192.785V7.94972H185.105V0.269043ZM200.466 0.269043H208.147V7.94972H200.466V0.269043ZM208.147 0.269043H215.828V7.94972H208.147V0.269043ZM215.828 0.269043H223.508V7.94972H215.828V0.269043ZM223.508 0.269043H231.189V7.94972H223.508V0.269043ZM231.189 0.269043H238.87V7.94972H231.189V0.269043ZM238.87 0.269043H246.55V7.94972H238.87V0.269043ZM246.55 0.269043H254.231V7.94972H246.55V0.269043ZM0.768555 7.94972H8.44923V15.6304H0.768555V7.94972ZM46.8526 7.94972H54.5333V15.6304H46.8526V7.94972ZM85.256 7.94972H92.9367V15.6304H85.256V7.94972ZM100.617 7.94972H108.298V15.6304H100.617V7.94972ZM108.298 7.94972H115.979V15.6304H108.298V7.94972ZM131.34 7.94972H139.021V15.6304H131.34V7.94972ZM154.382 7.94972H162.063V15.6304H154.382V7.94972ZM177.424 7.94972H185.105V15.6304H177.424V7.94972ZM185.105 7.94972H192.785V15.6304H185.105V7.94972ZM200.466 7.94972H208.147V15.6304H200.466V7.94972ZM246.55 7.94972H254.231V15.6304H246.55V7.94972ZM0.768555 15.6304H8.44923V23.3111H0.768555V15.6304ZM16.1299 15.6304H23.8106V23.3111H16.1299V15.6304ZM23.8106 15.6304H31.4913V23.3111H23.8106V15.6304ZM31.4913 15.6304H39.1719V23.3111H31.4913V15.6304ZM46.8526 15.6304H54.5333V23.3111H46.8526V15.6304ZM62.214 15.6304H69.8946V23.3111H62.214V15.6304ZM92.9367 15.6304H100.617V23.3111H92.9367V15.6304ZM100.617 15.6304H108.298V23.3111H100.617V15.6304ZM131.34 15.6304H139.021V23.3111H131.34V15.6304ZM154.382 15.6304H162.063V23.3111H154.382V15.6304ZM169.743 15.6304H177.424V23.3111H169.743V15.6304ZM177.424 15.6304H185.105V23.3111H177.424V15.6304ZM200.466 15.6304H208.147V23.3111H200.466V15.6304ZM215.828 15.6304H223.508V23.3111H215.828V15.6304ZM223.508 15.6304H231.189V23.3111H223.508V15.6304ZM231.189 15.6304H238.87V23.3111H231.189V15.6304ZM246.55 15.6304H254.231V23.3111H246.55V15.6304ZM0.768555 23.3111H8.44923V30.9918H0.768555V23.3111ZM16.1299 23.3111H23.8106V30.9918H16.1299V23.3111ZM23.8106 23.3111H31.4913V30.9918H23.8106V23.3111ZM31.4913 23.3111H39.1719V30.9918H31.4913V23.3111ZM46.8526 23.3111H54.5333V30.9918H46.8526V23.3111ZM62.214 23.3111H69.8946V30.9918H62.214V23.3111ZM69.8946 23.3111H77.5753V30.9918H69.8946V23.3111ZM100.617 23.3111H108.298V30.9918H100.617V23.3111ZM131.34 23.3111H139.021V30.9918H131.34V23.3111ZM146.701 23.3111H154.382V30.9918H146.701V23.3111ZM162.063 23.3111H169.743V30.9918H162.063V23.3111ZM177.424 23.3111H185.105V30.9918H177.424V23.3111ZM200.466 23.3111H208.147V30.9918H200.466V23.3111ZM215.828 23.3111H223.508V30.9918H215.828V23.3111ZM223.508 23.3111H231.189V30.9918H223.508V23.3111ZM231.189 23.3111H238.87V30.9918H231.189V23.3111ZM246.55 23.3111H254.231V30.9918H246.55V23.3111ZM0.768555 30.9918H8.44923V38.6724H0.768555V30.9918ZM16.1299 30.9918H23.8106V38.6724H16.1299V30.9918ZM23.8106 30.9918H31.4913V38.6724H23.8106V30.9918ZM31.4913 30.9918H39.1719V38.6724H31.4913V30.9918ZM46.8526 30.9918H54.5333V38.6724H46.8526V30.9918ZM69.8946 30.9918H77.5753V38.6724H69.8946V30.9918ZM92.9367 30.9918H100.617V38.6724H92.9367V30.9918ZM123.659 30.9918H131.34V38.6724H123.659V30.9918ZM146.701 30.9918H154.382V38.6724H146.701V30.9918ZM177.424 30.9918H185.105V38.6724H177.424V30.9918ZM185.105 30.9918H192.785V38.6724H185.105V30.9918ZM200.466 30.9918H208.147V38.6724H200.466V30.9918ZM215.828 30.9918H223.508V38.6724H215.828V30.9918ZM223.508 30.9918H231.189V38.6724H223.508V30.9918ZM231.189 30.9918H238.87V38.6724H231.189V30.9918ZM246.55 30.9918H254.231V38.6724H246.55V30.9918ZM0.768555 38.6724H8.44923V46.3531H0.768555V38.6724ZM46.8526 38.6724H54.5333V46.3531H46.8526V38.6724ZM62.214 38.6724H69.8946V46.3531H62.214V38.6724ZM69.8946 38.6724H77.5753V46.3531H69.8946V38.6724ZM77.5753 38.6724H85.256V46.3531H77.5753V38.6724ZM85.256 38.6724H92.9367V46.3531H85.256V38.6724ZM108.298 38.6724H115.979V46.3531H108.298V38.6724ZM115.979 38.6724H123.659V46.3531H115.979V38.6724ZM123.659 38.6724H131.34V46.3531H123.659V38.6724ZM131.34 38.6724H139.021V46.3531H131.34V38.6724ZM139.021 38.6724H146.701V46.3531H139.021V38.6724ZM154.382 38.6724H162.063V46.3531H154.382V38.6724ZM169.743 38.6724H177.424V46.3531H169.743V38.6724ZM200.466 38.6724H208.147V46.3531H200.466V38.6724ZM246.55 38.6724H254.231V46.3531H246.55V38.6724ZM0.768555 46.3531H8.44923V54.0338H0.768555V46.3531ZM8.44923 46.3531H16.1299V54.0338H8.44923V46.3531ZM16.1299 46.3531H23.8106V54.0338H16.1299V46.3531ZM23.8106 46.3531H31.4913V54.0338H23.8106V46.3531ZM31.4913 46.3531H39.1719V54.0338H31.4913V46.3531ZM39.1719 46.3531H46.8526V54.0338H39.1719V46.3531ZM46.8526 46.3531H54.5333V54.0338H46.8526V46.3531ZM62.214 46.3531H69.8946V54.0338H62.214V46.3531ZM77.5753 46.3531H85.256V54.0338H77.5753V46.3531ZM92.9367 46.3531H100.617V54.0338H92.9367V46.3531ZM108.298 46.3531H115.979V54.0338H108.298V46.3531ZM123.659 46.3531H131.34V54.0338H123.659V46.3531ZM139.021 46.3531H146.701V54.0338H139.021V46.3531ZM154.382 46.3531H162.063V54.0338H154.382V46.3531ZM169.743 46.3531H177.424V54.0338H169.743V46.3531ZM185.105 46.3531H192.785V54.0338H185.105V46.3531ZM200.466 46.3531H208.147V54.0338H200.466V46.3531ZM208.147 46.3531H215.828V54.0338H208.147V46.3531ZM215.828 46.3531H223.508V54.0338H215.828V46.3531ZM223.508 46.3531H231.189V54.0338H223.508V46.3531ZM231.189 46.3531H238.87V54.0338H231.189V46.3531ZM238.87 46.3531H246.55V54.0338H238.87V46.3531ZM246.55 46.3531H254.231V54.0338H246.55V46.3531ZM62.214 54.0338H69.8946V61.7145H62.214V54.0338ZM69.8946 54.0338H77.5753V61.7145H69.8946V54.0338ZM77.5753 54.0338H85.256V61.7145H77.5753V54.0338ZM85.256 54.0338H92.9367V61.7145H85.256V54.0338ZM92.9367 54.0338H100.617V61.7145H92.9367V54.0338ZM108.298 54.0338H115.979V61.7145H108.298V54.0338ZM115.979 54.0338H123.659V61.7145H115.979V54.0338ZM131.34 54.0338H139.021V61.7145H131.34V54.0338ZM146.701 54.0338H154.382V61.7145H146.701V54.0338ZM154.382 54.0338H162.063V61.7145H154.382V54.0338ZM162.063 54.0338H169.743V61.7145H162.063V54.0338ZM169.743 54.0338H177.424V61.7145H169.743V54.0338ZM185.105 54.0338H192.785V61.7145H185.105V54.0338ZM8.44923 61.7145H16.1299V69.3951H8.44923V61.7145ZM23.8106 61.7145H31.4913V69.3951H23.8106V61.7145ZM39.1719 61.7145H46.8526V69.3951H39.1719V61.7145ZM46.8526 61.7145H54.5333V69.3951H46.8526V61.7145ZM54.5333 61.7145H62.214V69.3951H54.5333V61.7145ZM62.214 61.7145H69.8946V69.3951H62.214V61.7145ZM85.256 61.7145H92.9367V69.3951H85.256V61.7145ZM115.979 61.7145H123.659V69.3951H115.979V61.7145ZM123.659 61.7145H131.34V69.3951H123.659V61.7145ZM146.701 61.7145H154.382V69.3951H146.701V61.7145ZM162.063 61.7145H169.743V69.3951H162.063V61.7145ZM185.105 61.7145H192.785V69.3951H185.105V61.7145ZM192.785 61.7145H200.466V69.3951H192.785V61.7145ZM200.466 61.7145H208.147V69.3951H200.466V61.7145ZM208.147 61.7145H215.828V69.3951H208.147V61.7145ZM223.508 61.7145H231.189V69.3951H223.508V61.7145ZM231.189 61.7145H238.87V69.3951H231.189V61.7145ZM246.55 61.7145H254.231V69.3951H246.55V61.7145ZM54.5333 69.3951H62.214V77.0758H54.5333V69.3951ZM62.214 69.3951H69.8946V77.0758H62.214V69.3951ZM108.298 69.3951H115.979V77.0758H108.298V69.3951ZM115.979 69.3951H123.659V77.0758H115.979V69.3951ZM123.659 69.3951H131.34V77.0758H123.659V69.3951ZM139.021 69.3951H146.701V77.0758H139.021V69.3951ZM154.382 69.3951H162.063V77.0758H154.382V69.3951ZM177.424 69.3951H185.105V77.0758H177.424V69.3951ZM185.105 69.3951H192.785V77.0758H185.105V69.3951ZM200.466 69.3951H208.147V77.0758H200.466V69.3951ZM223.508 69.3951H231.189V77.0758H223.508V69.3951ZM8.44923 77.0758H16.1299V84.7565H8.44923V77.0758ZM16.1299 77.0758H23.8106V84.7565H16.1299V77.0758ZM31.4913 77.0758H39.1719V84.7565H31.4913V77.0758ZM46.8526 77.0758H54.5333V84.7565H46.8526V77.0758ZM54.5333 77.0758H62.214V84.7565H54.5333V77.0758ZM92.9367 77.0758H100.617V84.7565H92.9367V77.0758ZM115.979 77.0758H123.659V84.7565H115.979V77.0758ZM131.34 77.0758H139.021V84.7565H131.34V77.0758ZM146.701 77.0758H154.382V84.7565H146.701V77.0758ZM154.382 77.0758H162.063V84.7565H154.382V77.0758ZM162.063 77.0758H169.743V84.7565H162.063V77.0758ZM169.743 77.0758H177.424V84.7565H169.743V77.0758ZM185.105 77.0758H192.785V84.7565H185.105V77.0758ZM200.466 77.0758H208.147V84.7565H200.466V77.0758ZM246.55 77.0758H254.231V84.7565H246.55V77.0758ZM16.1299 84.7565H23.8106V92.4372H16.1299V84.7565ZM23.8106 84.7565H31.4913V92.4372H23.8106V84.7565ZM31.4913 84.7565H39.1719V92.4372H31.4913V84.7565ZM62.214 84.7565H69.8946V92.4372H62.214V84.7565ZM69.8946 84.7565H77.5753V92.4372H69.8946V84.7565ZM77.5753 84.7565H85.256V92.4372H77.5753V84.7565ZM85.256 84.7565H92.9367V92.4372H85.256V84.7565ZM108.298 84.7565H115.979V92.4372H108.298V84.7565ZM115.979 84.7565H123.659V92.4372H115.979V84.7565ZM123.659 84.7565H131.34V92.4372H123.659V84.7565ZM131.34 84.7565H139.021V92.4372H131.34V84.7565ZM146.701 84.7565H154.382V92.4372H146.701V84.7565ZM154.382 84.7565H162.063V92.4372H154.382V84.7565ZM177.424 84.7565H185.105V92.4372H177.424V84.7565ZM200.466 84.7565H208.147V92.4372H200.466V84.7565ZM208.147 84.7565H215.828V92.4372H208.147V84.7565ZM223.508 84.7565H231.189V92.4372H223.508V84.7565ZM246.55 84.7565H254.231V92.4372H246.55V84.7565ZM0.768555 92.4372H8.44923V100.118H0.768555V92.4372ZM31.4913 92.4372H39.1719V100.118H31.4913V92.4372ZM46.8526 92.4372H54.5333V100.118H46.8526V92.4372ZM69.8946 92.4372H77.5753V100.118H69.8946V92.4372ZM77.5753 92.4372H85.256V100.118H77.5753V92.4372ZM85.256 92.4372H92.9367V100.118H85.256V92.4372ZM100.617 92.4372H108.298V100.118H100.617V92.4372ZM115.979 92.4372H123.659V100.118H115.979V92.4372ZM123.659 92.4372H131.34V100.118H123.659V92.4372ZM146.701 92.4372H154.382V100.118H146.701V92.4372ZM185.105 92.4372H192.785V100.118H185.105V92.4372ZM192.785 92.4372H200.466V100.118H192.785V92.4372ZM200.466 92.4372H208.147V100.118H200.466V92.4372ZM208.147 92.4372H215.828V100.118H208.147V92.4372ZM215.828 92.4372H223.508V100.118H215.828V92.4372ZM246.55 92.4372H254.231V100.118H246.55V92.4372ZM16.1299 100.118H23.8106V107.799H16.1299V100.118ZM31.4913 100.118H39.1719V107.799H31.4913V100.118ZM39.1719 100.118H46.8526V107.799H39.1719V100.118ZM62.214 100.118H69.8946V107.799H62.214V100.118ZM115.979 100.118H123.659V107.799H115.979V100.118ZM131.34 100.118H139.021V107.799H131.34V100.118ZM169.743 100.118H177.424V107.799H169.743V100.118ZM192.785 100.118H200.466V107.799H192.785V100.118ZM215.828 100.118H223.508V107.799H215.828V100.118ZM238.87 100.118H246.55V107.799H238.87V100.118ZM0.768555 107.799H8.44923V115.479H0.768555V107.799ZM16.1299 107.799H23.8106V115.479H16.1299V107.799ZM39.1719 107.799H46.8526V115.479H39.1719V107.799ZM46.8526 107.799H54.5333V115.479H46.8526V107.799ZM54.5333 107.799H62.214V115.479H54.5333V107.799ZM69.8946 107.799H77.5753V115.479H69.8946V107.799ZM77.5753 107.799H85.256V115.479H77.5753V107.799ZM92.9367 107.799H100.617V115.479H92.9367V107.799ZM108.298 107.799H115.979V115.479H108.298V107.799ZM131.34 107.799H139.021V115.479H131.34V107.799ZM154.382 107.799H162.063V115.479H154.382V107.799ZM162.063 107.799H169.743V115.479H162.063V107.799ZM177.424 107.799H185.105V115.479H177.424V107.799ZM185.105 107.799H192.785V115.479H185.105V107.799ZM200.466 107.799H208.147V115.479H200.466V107.799ZM208.147 107.799H215.828V115.479H208.147V107.799ZM215.828 107.799H223.508V115.479H215.828V107.799ZM223.508 107.799H231.189V115.479H223.508V107.799ZM238.87 107.799H246.55V115.479H238.87V107.799ZM0.768555 115.479H8.44923V123.16H0.768555V115.479ZM8.44923 115.479H16.1299V123.16H8.44923V115.479ZM23.8106 115.479H31.4913V123.16H23.8106V115.479ZM39.1719 115.479H46.8526V123.16H39.1719V115.479ZM62.214 115.479H69.8946V123.16H62.214V115.479ZM92.9367 115.479H100.617V123.16H92.9367V115.479ZM108.298 115.479H115.979V123.16H108.298V115.479ZM123.659 115.479H131.34V123.16H123.659V115.479ZM131.34 115.479H139.021V123.16H131.34V115.479ZM146.701 115.479H154.382V123.16H146.701V115.479ZM162.063 115.479H169.743V123.16H162.063V115.479ZM169.743 115.479H177.424V123.16H169.743V115.479ZM185.105 115.479H192.785V123.16H185.105V115.479ZM192.785 115.479H200.466V123.16H192.785V115.479ZM215.828 115.479H223.508V123.16H215.828V115.479ZM238.87 115.479H246.55V123.16H238.87V115.479ZM0.768555 123.16H8.44923V130.841H0.768555V123.16ZM16.1299 123.16H23.8106V130.841H16.1299V123.16ZM31.4913 123.16H39.1719V130.841H31.4913V123.16ZM46.8526 123.16H54.5333V130.841H46.8526V123.16ZM54.5333 123.16H62.214V130.841H54.5333V123.16ZM62.214 123.16H69.8946V130.841H62.214V123.16ZM77.5753 123.16H85.256V130.841H77.5753V123.16ZM85.256 123.16H92.9367V130.841H85.256V123.16ZM115.979 123.16H123.659V130.841H115.979V123.16ZM131.34 123.16H139.021V130.841H131.34V123.16ZM146.701 123.16H154.382V130.841H146.701V123.16ZM162.063 123.16H169.743V130.841H162.063V123.16ZM169.743 123.16H177.424V130.841H169.743V123.16ZM177.424 123.16H185.105V130.841H177.424V123.16ZM185.105 123.16H192.785V130.841H185.105V123.16ZM200.466 123.16H208.147V130.841H200.466V123.16ZM208.147 123.16H215.828V130.841H208.147V123.16ZM223.508 123.16H231.189V130.841H223.508V123.16ZM231.189 123.16H238.87V130.841H231.189V123.16ZM238.87 123.16H246.55V130.841H238.87V123.16ZM246.55 123.16H254.231V130.841H246.55V123.16ZM0.768555 130.841H8.44923V138.521H0.768555V130.841ZM39.1719 130.841H46.8526V138.521H39.1719V130.841ZM77.5753 130.841H85.256V138.521H77.5753V130.841ZM100.617 130.841H108.298V138.521H100.617V130.841ZM123.659 130.841H131.34V138.521H123.659V130.841ZM131.34 130.841H139.021V138.521H131.34V130.841ZM146.701 130.841H154.382V138.521H146.701V130.841ZM162.063 130.841H169.743V138.521H162.063V130.841ZM169.743 130.841H177.424V138.521H169.743V130.841ZM185.105 130.841H192.785V138.521H185.105V130.841ZM192.785 130.841H200.466V138.521H192.785V130.841ZM200.466 130.841H208.147V138.521H200.466V130.841ZM223.508 130.841H231.189V138.521H223.508V130.841ZM231.189 130.841H238.87V138.521H231.189V130.841ZM238.87 130.841H246.55V138.521H238.87V130.841ZM0.768555 138.521H8.44923V146.202H0.768555V138.521ZM8.44923 138.521H16.1299V146.202H8.44923V138.521ZM31.4913 138.521H39.1719V146.202H31.4913V138.521ZM39.1719 138.521H46.8526V146.202H39.1719V138.521ZM46.8526 138.521H54.5333V146.202H46.8526V138.521ZM54.5333 138.521H62.214V146.202H54.5333V138.521ZM69.8946 138.521H77.5753V146.202H69.8946V138.521ZM85.256 138.521H92.9367V146.202H85.256V138.521ZM100.617 138.521H108.298V146.202H100.617V138.521ZM131.34 138.521H139.021V146.202H131.34V138.521ZM139.021 138.521H146.701V146.202H139.021V138.521ZM169.743 138.521H177.424V146.202H169.743V138.521ZM185.105 138.521H192.785V146.202H185.105V138.521ZM200.466 138.521H208.147V146.202H200.466V138.521ZM208.147 138.521H215.828V146.202H208.147V138.521ZM231.189 138.521H238.87V146.202H231.189V138.521ZM238.87 138.521H246.55V146.202H238.87V138.521ZM246.55 138.521H254.231V146.202H246.55V138.521ZM16.1299 146.202H23.8106V153.883H16.1299V146.202ZM31.4913 146.202H39.1719V153.883H31.4913V146.202ZM54.5333 146.202H62.214V153.883H54.5333V146.202ZM62.214 146.202H69.8946V153.883H62.214V146.202ZM69.8946 146.202H77.5753V153.883H69.8946V146.202ZM77.5753 146.202H85.256V153.883H77.5753V146.202ZM85.256 146.202H92.9367V153.883H85.256V146.202ZM108.298 146.202H115.979V153.883H108.298V146.202ZM139.021 146.202H146.701V153.883H139.021V146.202ZM146.701 146.202H154.382V153.883H146.701V146.202ZM154.382 146.202H162.063V153.883H154.382V146.202ZM162.063 146.202H169.743V153.883H162.063V146.202ZM177.424 146.202H185.105V153.883H177.424V146.202ZM192.785 146.202H200.466V153.883H192.785V146.202ZM215.828 146.202H223.508V153.883H215.828V146.202ZM238.87 146.202H246.55V153.883H238.87V146.202ZM0.768555 153.883H8.44923V161.563H0.768555V153.883ZM8.44923 153.883H16.1299V161.563H8.44923V153.883ZM23.8106 153.883H31.4913V161.563H23.8106V153.883ZM39.1719 153.883H46.8526V161.563H39.1719V153.883ZM46.8526 153.883H54.5333V161.563H46.8526V153.883ZM62.214 153.883H69.8946V161.563H62.214V153.883ZM77.5753 153.883H85.256V161.563H77.5753V153.883ZM169.743 153.883H177.424V161.563H169.743V153.883ZM185.105 153.883H192.785V161.563H185.105V153.883ZM192.785 153.883H200.466V161.563H192.785V153.883ZM231.189 153.883H238.87V161.563H231.189V153.883ZM238.87 153.883H246.55V161.563H238.87V153.883ZM8.44923 161.563H16.1299V169.244H8.44923V161.563ZM23.8106 161.563H31.4913V169.244H23.8106V161.563ZM31.4913 161.563H39.1719V169.244H31.4913V161.563ZM62.214 161.563H69.8946V169.244H62.214V161.563ZM69.8946 161.563H77.5753V169.244H69.8946V161.563ZM85.256 161.563H92.9367V169.244H85.256V161.563ZM100.617 161.563H108.298V169.244H100.617V161.563ZM123.659 161.563H131.34V169.244H123.659V161.563ZM139.021 161.563H146.701V169.244H139.021V161.563ZM146.701 161.563H154.382V169.244H146.701V161.563ZM154.382 161.563H162.063V169.244H154.382V161.563ZM169.743 161.563H177.424V169.244H169.743V161.563ZM192.785 161.563H200.466V169.244H192.785V161.563ZM223.508 161.563H231.189V169.244H223.508V161.563ZM231.189 161.563H238.87V169.244H231.189V161.563ZM246.55 161.563H254.231V169.244H246.55V161.563ZM0.768555 169.244H8.44923V176.925H0.768555V169.244ZM8.44923 169.244H16.1299V176.925H8.44923V169.244ZM16.1299 169.244H23.8106V176.925H16.1299V169.244ZM23.8106 169.244H31.4913V176.925H23.8106V169.244ZM31.4913 169.244H39.1719V176.925H31.4913V169.244ZM39.1719 169.244H46.8526V176.925H39.1719V169.244ZM46.8526 169.244H54.5333V176.925H46.8526V169.244ZM54.5333 169.244H62.214V176.925H54.5333V169.244ZM62.214 169.244H69.8946V176.925H62.214V169.244ZM69.8946 169.244H77.5753V176.925H69.8946V169.244ZM77.5753 169.244H85.256V176.925H77.5753V169.244ZM108.298 169.244H115.979V176.925H108.298V169.244ZM131.34 169.244H139.021V176.925H131.34V169.244ZM139.021 169.244H146.701V176.925H139.021V169.244ZM154.382 169.244H162.063V176.925H154.382V169.244ZM192.785 169.244H200.466V176.925H192.785V169.244ZM238.87 169.244H246.55V176.925H238.87V169.244ZM246.55 169.244H254.231V176.925H246.55V169.244ZM8.44923 176.925H16.1299V184.605H8.44923V176.925ZM16.1299 176.925H23.8106V184.605H16.1299V176.925ZM23.8106 176.925H31.4913V184.605H23.8106V176.925ZM39.1719 176.925H46.8526V184.605H39.1719V176.925ZM54.5333 176.925H62.214V184.605H54.5333V176.925ZM77.5753 176.925H85.256V184.605H77.5753V176.925ZM108.298 176.925H115.979V184.605H108.298V176.925ZM115.979 176.925H123.659V184.605H115.979V176.925ZM123.659 176.925H131.34V184.605H123.659V176.925ZM139.021 176.925H146.701V184.605H139.021V176.925ZM162.063 176.925H169.743V184.605H162.063V176.925ZM169.743 176.925H177.424V184.605H169.743V176.925ZM185.105 176.925H192.785V184.605H185.105V176.925ZM200.466 176.925H208.147V184.605H200.466V176.925ZM223.508 176.925H231.189V184.605H223.508V176.925ZM246.55 176.925H254.231V184.605H246.55V176.925ZM0.768555 184.605H8.44923V192.286H0.768555V184.605ZM39.1719 184.605H46.8526V192.286H39.1719V184.605ZM46.8526 184.605H54.5333V192.286H46.8526V184.605ZM54.5333 184.605H62.214V192.286H54.5333V184.605ZM62.214 184.605H69.8946V192.286H62.214V184.605ZM77.5753 184.605H85.256V192.286H77.5753V184.605ZM100.617 184.605H108.298V192.286H100.617V184.605ZM108.298 184.605H115.979V192.286H108.298V184.605ZM123.659 184.605H131.34V192.286H123.659V184.605ZM131.34 184.605H139.021V192.286H131.34V184.605ZM139.021 184.605H146.701V192.286H139.021V184.605ZM146.701 184.605H154.382V192.286H146.701V184.605ZM185.105 184.605H192.785V192.286H185.105V184.605ZM192.785 184.605H200.466V192.286H192.785V184.605ZM200.466 184.605H208.147V192.286H200.466V184.605ZM208.147 184.605H215.828V192.286H208.147V184.605ZM215.828 184.605H223.508V192.286H215.828V184.605ZM238.87 184.605H246.55V192.286H238.87V184.605ZM246.55 184.605H254.231V192.286H246.55V184.605ZM62.214 192.286H69.8946V199.967H62.214V192.286ZM69.8946 192.286H77.5753V199.967H69.8946V192.286ZM77.5753 192.286H85.256V199.967H77.5753V192.286ZM85.256 192.286H92.9367V199.967H85.256V192.286ZM115.979 192.286H123.659V199.967H115.979V192.286ZM146.701 192.286H154.382V199.967H146.701V192.286ZM185.105 192.286H192.785V199.967H185.105V192.286ZM215.828 192.286H223.508V199.967H215.828V192.286ZM223.508 192.286H231.189V199.967H223.508V192.286ZM238.87 192.286H246.55V199.967H238.87V192.286ZM0.768555 199.967H8.44923V207.647H0.768555V199.967ZM8.44923 199.967H16.1299V207.647H8.44923V199.967ZM16.1299 199.967H23.8106V207.647H16.1299V199.967ZM23.8106 199.967H31.4913V207.647H23.8106V199.967ZM31.4913 199.967H39.1719V207.647H31.4913V199.967ZM39.1719 199.967H46.8526V207.647H39.1719V199.967ZM46.8526 199.967H54.5333V207.647H46.8526V199.967ZM62.214 199.967H69.8946V207.647H62.214V199.967ZM85.256 199.967H92.9367V207.647H85.256V199.967ZM92.9367 199.967H100.617V207.647H92.9367V199.967ZM100.617 199.967H108.298V207.647H100.617V199.967ZM115.979 199.967H123.659V207.647H115.979V199.967ZM162.063 199.967H169.743V207.647H162.063V199.967ZM185.105 199.967H192.785V207.647H185.105V199.967ZM200.466 199.967H208.147V207.647H200.466V199.967ZM215.828 199.967H223.508V207.647H215.828V199.967ZM238.87 199.967H246.55V207.647H238.87V199.967ZM0.768555 207.647H8.44923V215.328H0.768555V207.647ZM46.8526 207.647H54.5333V215.328H46.8526V207.647ZM62.214 207.647H69.8946V215.328H62.214V207.647ZM69.8946 207.647H77.5753V215.328H69.8946V207.647ZM77.5753 207.647H85.256V215.328H77.5753V207.647ZM108.298 207.647H115.979V215.328H108.298V207.647ZM115.979 207.647H123.659V215.328H115.979V207.647ZM139.021 207.647H146.701V215.328H139.021V207.647ZM154.382 207.647H162.063V215.328H154.382V207.647ZM177.424 207.647H185.105V215.328H177.424V207.647ZM185.105 207.647H192.785V215.328H185.105V207.647ZM215.828 207.647H223.508V215.328H215.828V207.647ZM223.508 207.647H231.189V215.328H223.508V207.647ZM238.87 207.647H246.55V215.328H238.87V207.647ZM246.55 207.647H254.231V215.328H246.55V207.647ZM0.768555 215.328H8.44923V223.009H0.768555V215.328ZM16.1299 215.328H23.8106V223.009H16.1299V215.328ZM23.8106 215.328H31.4913V223.009H23.8106V215.328ZM31.4913 215.328H39.1719V223.009H31.4913V215.328ZM46.8526 215.328H54.5333V223.009H46.8526V215.328ZM77.5753 215.328H85.256V223.009H77.5753V215.328ZM108.298 215.328H115.979V223.009H108.298V215.328ZM115.979 215.328H123.659V223.009H115.979V215.328ZM131.34 215.328H139.021V223.009H131.34V215.328ZM139.021 215.328H146.701V223.009H139.021V215.328ZM169.743 215.328H177.424V223.009H169.743V215.328ZM185.105 215.328H192.785V223.009H185.105V215.328ZM192.785 215.328H200.466V223.009H192.785V215.328ZM200.466 215.328H208.147V223.009H200.466V215.328ZM208.147 215.328H215.828V223.009H208.147V215.328ZM215.828 215.328H223.508V223.009H215.828V215.328ZM223.508 215.328H231.189V223.009H223.508V215.328ZM246.55 215.328H254.231V223.009H246.55V215.328ZM0.768555 223.009H8.44923V230.689H0.768555V223.009ZM16.1299 223.009H23.8106V230.689H16.1299V223.009ZM23.8106 223.009H31.4913V230.689H23.8106V223.009ZM31.4913 223.009H39.1719V230.689H31.4913V223.009ZM46.8526 223.009H54.5333V230.689H46.8526V223.009ZM62.214 223.009H69.8946V230.689H62.214V223.009ZM69.8946 223.009H77.5753V230.689H69.8946V223.009ZM85.256 223.009H92.9367V230.689H85.256V223.009ZM115.979 223.009H123.659V230.689H115.979V223.009ZM131.34 223.009H139.021V230.689H131.34V223.009ZM139.021 223.009H146.701V230.689H139.021V223.009ZM146.701 223.009H154.382V230.689H146.701V223.009ZM154.382 223.009H162.063V230.689H154.382V223.009ZM162.063 223.009H169.743V230.689H162.063V223.009ZM200.466 223.009H208.147V230.689H200.466V223.009ZM231.189 223.009H238.87V230.689H231.189V223.009ZM238.87 223.009H246.55V230.689H238.87V223.009ZM0.768555 230.689H8.44923V238.37H0.768555V230.689ZM16.1299 230.689H23.8106V238.37H16.1299V230.689ZM23.8106 230.689H31.4913V238.37H23.8106V230.689ZM31.4913 230.689H39.1719V238.37H31.4913V230.689ZM46.8526 230.689H54.5333V238.37H46.8526V230.689ZM77.5753 230.689H85.256V238.37H77.5753V230.689ZM92.9367 230.689H100.617V238.37H92.9367V230.689ZM108.298 230.689H115.979V238.37H108.298V230.689ZM115.979 230.689H123.659V238.37H115.979V230.689ZM123.659 230.689H131.34V238.37H123.659V230.689ZM169.743 230.689H177.424V238.37H169.743V230.689ZM177.424 230.689H185.105V238.37H177.424V230.689ZM185.105 230.689H192.785V238.37H185.105V230.689ZM192.785 230.689H200.466V238.37H192.785V230.689ZM200.466 230.689H208.147V238.37H200.466V230.689ZM208.147 230.689H215.828V238.37H208.147V230.689ZM215.828 230.689H223.508V238.37H215.828V230.689ZM223.508 230.689H231.189V238.37H223.508V230.689ZM231.189 230.689H238.87V238.37H231.189V230.689ZM246.55 230.689H254.231V238.37H246.55V230.689ZM0.768555 238.37H8.44923V246.051H0.768555V238.37ZM46.8526 238.37H54.5333V246.051H46.8526V238.37ZM62.214 238.37H69.8946V246.051H62.214V238.37ZM69.8946 238.37H77.5753V246.051H69.8946V238.37ZM77.5753 238.37H85.256V246.051H77.5753V238.37ZM92.9367 238.37H100.617V246.051H92.9367V238.37ZM100.617 238.37H108.298V246.051H100.617V238.37ZM115.979 238.37H123.659V246.051H115.979V238.37ZM123.659 238.37H131.34V246.051H123.659V238.37ZM131.34 238.37H139.021V246.051H131.34V238.37ZM162.063 238.37H169.743V246.051H162.063V238.37ZM177.424 238.37H185.105V246.051H177.424V238.37ZM185.105 238.37H192.785V246.051H185.105V238.37ZM0.768555 246.051H8.44923V253.731H0.768555V246.051ZM8.44923 246.051H16.1299V253.731H8.44923V246.051ZM16.1299 246.051H23.8106V253.731H16.1299V246.051ZM23.8106 246.051H31.4913V253.731H23.8106V246.051ZM31.4913 246.051H39.1719V253.731H31.4913V246.051ZM39.1719 246.051H46.8526V253.731H39.1719V246.051ZM46.8526 246.051H54.5333V253.731H46.8526V246.051ZM69.8946 246.051H77.5753V253.731H69.8946V246.051ZM85.256 246.051H92.9367V253.731H85.256V246.051ZM92.9367 246.051H100.617V253.731H92.9367V246.051ZM108.298 246.051H115.979V253.731H108.298V246.051ZM131.34 246.051H139.021V253.731H131.34V246.051ZM139.021 246.051H146.701V253.731H139.021V246.051ZM185.105 246.051H192.785V253.731H185.105V246.051ZM200.466 246.051H208.147V253.731H200.466V246.051ZM208.147 246.051H215.828V253.731H208.147V246.051ZM215.828 246.051H223.508V253.731H215.828V246.051ZM223.508 246.051H231.189V253.731H223.508V246.051ZM231.189 246.051H238.87V253.731H231.189V246.051ZM238.87 246.051H246.55V253.731H238.87V246.051Z" fill="#282C33"/>
</svg>
