<svg width="20" height="19" viewBox="0 0 20 19" fill="none" xmlns="http://www.w3.org/2000/svg">
<path id="Union" fill-rule="evenodd" clip-rule="evenodd" d="M12.3326 4.77819C14.2853 6.73081 14.2853 9.89663 12.3326 11.8493C10.38 13.8019 7.21419 13.8019 5.26157 11.8493C3.30895 9.89663 3.30895 6.73081 5.26157 4.77819C7.21419 2.82557 10.38 2.82557 12.3326 4.77819ZM15.4153 12.8106C17.5361 9.69696 17.2156 5.41853 14.454 2.65687C11.3298 -0.467328 6.26445 -0.467328 3.14025 2.65687C0.0160583 5.78106 0.0160583 10.8464 3.14025 13.9706C5.90192 16.7322 10.1804 17.0527 13.294 14.932L17.2824 18.9203L19.4037 16.799L15.4153 12.8106Z" fill="white"/>
</svg>
