<svg width="28" height="28" viewBox="0 0 28 28" fill="none" xmlns="http://www.w3.org/2000/svg">
<rect width="28" height="28" rx="14" fill="#9BD0FF"/>
<path d="M13.2654 4.79518C13.6614 4.36658 14.3386 4.36658 14.7346 4.79518L17.4641 7.75L19.3776 9.82145C19.9693 10.4619 19.515 11.5 18.6431 11.5H14H9.35693C8.485 11.5 8.03073 10.4619 8.62238 9.82145L10.5359 7.75L13.2654 4.79518Z" fill="#253247"/>
<path d="M13.2654 23.2048C13.6614 23.6334 14.3386 23.6334 14.7346 23.2048L17.4641 20.25L19.3776 18.1785C19.9693 17.5381 19.515 16.5 18.6431 16.5H14H9.35693C8.485 16.5 8.03073 17.5381 8.62238 18.1786L10.5359 20.25L13.2654 23.2048Z" fill="#253247"/>
</svg>
