<svg width="36" height="36" viewBox="0 0 36 36" fill="none" xmlns="http://www.w3.org/2000/svg">
<g id="Frame" clip-path="url(#clip0_893_741)">
<path id="Vector" d="M4.5 19.5C4.5 19.1022 4.65804 18.7206 4.93934 18.4393C5.22064 18.158 5.60218 18 6 18H12C12.3978 18 12.7794 18.158 13.0607 18.4393C13.342 18.7206 13.5 19.1022 13.5 19.5V28.5C13.5 28.8978 13.342 29.2794 13.0607 29.5607C12.7794 29.842 12.3978 30 12 30H6C5.60218 30 5.22064 29.842 4.93934 29.5607C4.65804 29.2794 4.5 28.8978 4.5 28.5V19.5Z" stroke="#1491FF" stroke-width="2.75" stroke-linecap="round" stroke-linejoin="round"/>
<path id="Vector_2" d="M22.5 13.5C22.5 13.1022 22.658 12.7206 22.9393 12.4393C23.2206 12.158 23.6022 12 24 12H30C30.3978 12 30.7794 12.158 31.0607 12.4393C31.342 12.7206 31.5 13.1022 31.5 13.5V28.5C31.5 28.8978 31.342 29.2794 31.0607 29.5607C30.7794 29.842 30.3978 30 30 30H24C23.6022 30 23.2206 29.842 22.9393 29.5607C22.658 29.2794 22.5 28.8978 22.5 28.5V13.5Z" stroke="#1491FF" stroke-width="2.75" stroke-linecap="round" stroke-linejoin="round"/>
<path id="Vector_3" d="M13.5 7.5C13.5 7.10218 13.658 6.72064 13.9393 6.43934C14.2206 6.15804 14.6022 6 15 6H21C21.3978 6 21.7794 6.15804 22.0607 6.43934C22.342 6.72064 22.5 7.10218 22.5 7.5V28.5C22.5 28.8978 22.342 29.2794 22.0607 29.5607C21.7794 29.842 21.3978 30 21 30H15C14.6022 30 14.2206 29.842 13.9393 29.5607C13.658 29.2794 13.5 28.8978 13.5 28.5V7.5Z" stroke="#1491FF" stroke-width="2.75" stroke-linecap="round" stroke-linejoin="round"/>
<path id="Vector_4" d="M6 30H27" stroke="#1491FF" stroke-width="2.75" stroke-linecap="round" stroke-linejoin="round"/>
</g>
<defs>
<clipPath id="clip0_893_741">
<rect width="36" height="36" fill="white"/>
</clipPath>
</defs>
</svg>
