<svg width="30" height="30" viewBox="0 0 30 30" fill="none" xmlns="http://www.w3.org/2000/svg">
<g id="Group 427318797">
<path id="Vector" d="M2.7166 20.0879C2.04844 18.4749 1.70455 16.746 1.70455 15C1.70455 13.254 2.04844 11.5251 2.7166 9.91205C3.38476 8.29897 4.3641 6.83329 5.59869 5.59869C6.83329 4.3641 8.29897 3.38476 9.91205 2.7166C11.5251 2.04844 13.254 1.70455 15 1.70455C16.746 1.70455 18.4749 2.04844 20.0879 2.7166C21.701 3.38476 23.1667 4.3641 24.4013 5.59869C25.6359 6.83329 26.6152 8.29897 27.2834 9.91205C27.9516 11.5251 28.2955 13.254 28.2955 15C28.2955 16.746 27.9516 18.4749 27.2834 20.0879C26.6152 21.701 25.6359 23.1667 24.4013 24.4013C23.1667 25.6359 21.701 26.6152 20.0879 27.2834C18.4749 27.9516 16.746 28.2955 15 28.2955C13.254 28.2955 11.5251 27.9516 9.91205 27.2834C8.29897 26.6152 6.83329 25.6359 5.59869 24.4013C4.3641 23.1667 3.38476 21.701 2.7166 20.0879Z" stroke="#1491FF" stroke-width="3.40909" stroke-linecap="round" stroke-linejoin="round"/>
<path id="Vector_2" d="M10.9082 12.2729C10.9082 13.3579 11.3392 14.3984 12.1064 15.1656C12.8736 15.9328 13.9141 16.3638 14.9991 16.3638C16.0841 16.3638 17.1246 15.9328 17.8918 15.1656C18.659 14.3984 19.09 13.3579 19.09 12.2729C19.09 11.1879 18.659 10.1474 17.8918 9.38018C17.1246 8.61298 16.0841 8.18198 14.9991 8.18198C13.9141 8.18198 12.8736 8.61298 12.1064 9.38018C11.3392 10.1474 10.9082 11.1879 10.9082 12.2729Z" stroke="#1491FF" stroke-width="3.40909" stroke-linecap="round" stroke-linejoin="round"/>
<path id="Vector_3" d="M8.17969 24.5396C8.469 23.7526 9.061 23.0629 9.86786 22.5727C10.6747 22.0824 11.6535 21.8178 12.6589 21.818H17.3345C18.3412 21.8177 19.3212 22.083 20.1286 22.5744C20.9361 23.0658 21.5279 23.757 21.8161 24.5453" stroke="#1491FF" stroke-width="3.40909" stroke-linecap="round" stroke-linejoin="round"/>
</g>
</svg>
