<svg width="20" height="20" viewBox="0 0 20 20" fill="none" xmlns="http://www.w3.org/2000/svg">
<g id="Frame" clip-path="url(#clip0_22_1614)">
<path id="Vector" d="M2.5 10.8333C2.5 10.6123 2.5878 10.4004 2.74408 10.2441C2.90036 10.0878 3.11232 10 3.33333 10H6.66667C6.88768 10 7.09964 10.0878 7.25592 10.2441C7.4122 10.4004 7.5 10.6123 7.5 10.8333V15.8333C7.5 16.0543 7.4122 16.2663 7.25592 16.4226C7.09964 16.5789 6.88768 16.6667 6.66667 16.6667H3.33333C3.11232 16.6667 2.90036 16.5789 2.74408 16.4226C2.5878 16.2663 2.5 16.0543 2.5 15.8333V10.8333Z" stroke="#8CB2D3" stroke-width="1.52778" stroke-linecap="round" stroke-linejoin="round"/>
<path id="Vector_2" d="M12.5 7.49996C12.5 7.27895 12.5878 7.06698 12.7441 6.9107C12.9004 6.75442 13.1123 6.66663 13.3333 6.66663H16.6667C16.8877 6.66663 17.0996 6.75442 17.2559 6.9107C17.4122 7.06698 17.5 7.27895 17.5 7.49996V15.8333C17.5 16.0543 17.4122 16.2663 17.2559 16.4225C17.0996 16.5788 16.8877 16.6666 16.6667 16.6666H13.3333C13.1123 16.6666 12.9004 16.5788 12.7441 16.4225C12.5878 16.2663 12.5 16.0543 12.5 15.8333V7.49996Z" stroke="#8CB2D3" stroke-width="1.52778" stroke-linecap="round" stroke-linejoin="round"/>
<path id="Vector_3" d="M7.5 4.16671C7.5 3.94569 7.5878 3.73373 7.74408 3.57745C7.90036 3.42117 8.11232 3.33337 8.33333 3.33337H11.6667C11.8877 3.33337 12.0996 3.42117 12.2559 3.57745C12.4122 3.73373 12.5 3.94569 12.5 4.16671V15.8334C12.5 16.0544 12.4122 16.2663 12.2559 16.4226C12.0996 16.5789 11.8877 16.6667 11.6667 16.6667H8.33333C8.11232 16.6667 7.90036 16.5789 7.74408 16.4226C7.5878 16.2663 7.5 16.0544 7.5 15.8334V4.16671Z" stroke="#8CB2D3" stroke-width="1.52778" stroke-linecap="round" stroke-linejoin="round"/>
<path id="Vector_4" d="M3.33398 16.6667H15.0007" stroke="#8CB2D3" stroke-width="1.52778" stroke-linecap="round" stroke-linejoin="round"/>
</g>
<defs>
<clipPath id="clip0_22_1614">
<rect width="20" height="20" fill="white"/>
</clipPath>
</defs>
</svg>
