<svg width="24" height="20" viewBox="0 0 24 20" fill="none" xmlns="http://www.w3.org/2000/svg">
<g id="Vector 48">
<path d="M1 14.4688V12.75C1 11.2312 2.23122 10 3.75 10V9.475C3.75 5.07053 7.32053 1.5 11.725 1.5C16.1295 1.5 19.7 5.07053 19.7 9.475V10H20.0781C21.6918 10 23 11.3082 23 12.9219C23 14.5356 21.6918 15.8438 20.0781 15.8438H19.7C19.7 17.3108 18.5108 18.5 17.0437 18.5H12.55H10.5781C9.84462 18.5 9.25 17.9054 9.25 17.1719C9.25 16.4384 9.84462 15.8438 10.5781 15.8438H10.9C11.8113 15.8438 12.55 16.5825 12.55 17.4938V18.5H17.0437C18.5108 18.5 19.7 17.3108 19.7 15.8438V10V9.475C19.7 5.07053 16.1295 1.5 11.725 1.5C7.32053 1.5 3.75 5.07053 3.75 9.475V10V14.4688C3.75 15.2281 3.13439 15.8438 2.375 15.8438C1.61561 15.8438 1 15.2281 1 14.4688Z" fill="white"/>
<path d="M3.75 10V9.475C3.75 5.07053 7.32053 1.5 11.725 1.5V1.5C16.1295 1.5 19.7 5.07053 19.7 9.475V10M3.75 10V14.4687C3.75 15.2281 3.13439 15.8437 2.375 15.8437V15.8437C1.61561 15.8437 1 15.2281 1 14.4687V12.75C1 11.2312 2.23122 10 3.75 10V10ZM19.7 10H20.0781C21.6918 10 23 11.3082 23 12.9219V12.9219C23 14.5356 21.6918 15.8437 20.0781 15.8437H19.7M19.7 10V15.8437M19.7 15.8437V15.8437C19.7 17.3108 18.5108 18.5 17.0437 18.5H12.55M12.55 18.5H10.5781C9.84462 18.5 9.25 17.9054 9.25 17.1719V17.1719C9.25 16.4384 9.84462 15.8437 10.5781 15.8437H10.9C11.8113 15.8437 12.55 16.5825 12.55 17.4938V18.5Z" stroke="white" stroke-width="2"/>
</g>
</svg>
