<?xml version="1.0" encoding="utf-8"?>
<!-- Uploaded to: SVG Repo, www.svgrepo.com, Generator: SVG Repo Mixer Tools -->
<!DOCTYPE svg PUBLIC "-//W3C//DTD SVG 1.1//EN" "http://www.w3.org/Graphics/SVG/1.1/DTD/svg11.dtd">
<svg fill="#A9ABAD" width="800px" height="800px" viewBox="0 0 1000 1000" version="1.1" xmlns="http://www.w3.org/2000/svg" xmlns:xlink="http://www.w3.org/1999/xlink"  enable-background="new 0 0 1000 1000" xml:space="preserve">

<g>

<g transform="translate(0.000000,511.000000) scale(0.100000,-0.100000)">

<path d="M857.6,4490.5l-517.2-517.2l530.9-530.9l528.6-528.6l136.7,136.7l136.7,136.7l-296.2,296.2l-296.2,296.2h1385.4h1383.1v193.7v193.7H2477.6h-1374l284.8,284.8l284.8,284.8l-136.7,136.7c-75.2,75.2-141.3,136.7-148.1,136.7C1381.7,5010,1142.4,4777.6,857.6,4490.5z"/>

<path d="M8486.2,4873.3l-136.7-136.7l284.8-284.8l284.8-284.8h-1374H6173.4v-193.7v-193.7h1383.1h1385.3l-296.2-296.2l-296.2-296.2l136.7-136.7l136.7-136.7l517.2,517.2c287.1,284.8,519.5,528.6,519.5,542.3c0,22.8-1002.6,1036.7-1025.4,1036.7C8627.4,5010,8561.4,4948.5,8486.2,4873.3z"/>

<path d="M4612.6,3932.3l-364.6-211.9l-11.4-2037l-11.4-2037l-289.4,499l-287.1,501.3l-455.7,6.8l-453.4,4.6l-223.3-387.3l-221-387.4l246.1-426.1c134.4-237,312.2-544.6,391.9-683.6l145.8-257.5l111.6-540l111.6-542.3l660.8-660.8l660.8-660.8v-451.1v-448.9h193.7h193.7v528.6v530.9l-674.5,674.4l-674.4,674.5l-107.1,521.8L3446-1335.7l-353.2,612.9l-355.4,612.9l109.4,184.6l109.4,184.6h232.4h234.7l594.7-1029.9l594.7-1029.9l6.8,2647.7l4.6,2647.7l193.7,111.6l193.7,109.4l193.7-109.4l193.7-111.6V1883.8V270.6h193.7h193.7v394.2V1059l184.6,107.1c100.3,59.2,193.7,107.1,205.1,107.1c11.4,0,104.8-47.9,202.8-104.8l182.3-104.8V667.1V270.6h193.7h191.4l6.8,278l6.8,275.7l182.3,109.4c100.3,61.5,193.7,109.4,205.1,109.4c13.7,0,109.4-50.1,214.2-109.4l191.4-107.1l-4.6-246.1c-2.3-134.4-11.4-259.8-18.2-278c-11.4-29.6,18.2-31.9,189.1-27.3l202.8,6.8l6.8,193.7l6.8,193.7l186.8,107.1c152.7,86.6,193.7,100.2,232.4,82c25-13.7,113.9-63.8,200.5-113.9l152.7-88.9V-513.2v-1168.9l-387.4-1034.4L8133-3748.7l-2.3-378.2c0-207.3,0-439.8,0-519.5l2.3-143.5l189.1,6.8l186.8,6.8l11.4,501.3l11.4,501.3l382.8,1009.4L9295-1757.3v1317v1317l-360,207.4c-198.2,116.2-375.9,216.5-398.7,223.3c-22.8,11.4-104.8-22.8-225.6-91.1l-186.8-109.4l-389.6,195.9l-389.6,193.7l-189.1-111.6c-102.5-61.5-193.7-111.6-198.2-111.6c-6.8,0-184.6,102.5-396.5,227.9L6178,1728.9l-196-111.6l-195.9-113.9l-4.6,1107.4l-6.8,1109.6l-364.6,211.9c-200.5,116.2-380.5,211.9-398.7,211.9C4993.2,4144.2,4813.2,4048.5,4612.6,3932.3z"/>

</g>

</g>
</svg>