<svg width="19" height="19" viewBox="0 0 19 19" fill="none" xmlns="http://www.w3.org/2000/svg">
<g id="Frame" clip-path="url(#clip0_22_1304)">
<path id="Vector" d="M13.2202 6.33333C13.0626 5.88623 12.7748 5.49651 12.3939 5.21434C12.013 4.93217 11.5563 4.77045 11.0827 4.75H7.91602C7.28613 4.75 6.68204 5.00022 6.23664 5.44562C5.79124 5.89102 5.54102 6.49511 5.54102 7.125C5.54102 7.75489 5.79124 8.35898 6.23664 8.80438C6.68204 9.24978 7.28613 9.5 7.91602 9.5H11.0827C11.7126 9.5 12.3167 9.75022 12.7621 10.1956C13.2075 10.641 13.4577 11.2451 13.4577 11.875C13.4577 12.5049 13.2075 13.109 12.7621 13.5544C12.3167 13.9998 11.7126 14.25 11.0827 14.25H7.91602C7.4424 14.2296 6.98574 14.0678 6.6048 13.7857C6.22387 13.5035 5.93609 13.1138 5.77852 12.6667" stroke="#4DFF94" stroke-width="2" stroke-linecap="round" stroke-linejoin="round"/>
<path id="Vector_2" d="M9.5 2.375V4.75M9.5 14.25V16.625" stroke="#4DFF94" stroke-width="2" stroke-linecap="round" stroke-linejoin="round"/>
</g>
<defs>
<clipPath id="clip0_22_1304">
<rect width="19" height="19" fill="white"/>
</clipPath>
</defs>
</svg>
