<svg width="20" height="20" viewBox="0 0 20 20" fill="none" xmlns="http://www.w3.org/2000/svg">
<path fill-rule="evenodd" clip-rule="evenodd" d="M4.35577 2H15.8756C16.1505 2 16.4044 2.14704 16.5414 2.3856L19.8976 8.22616C20.0717 8.52905 20.02 8.91134 19.7717 9.15696L10.5337 18.2967C10.2344 18.5928 9.75307 18.5928 9.45381 18.2967L0.228291 9.1693C-0.0257343 8.91798 -0.073302 8.52455 0.113496 8.21976L3.701 2.36686C3.84072 2.13892 4.08865 2 4.35577 2ZM14.3882 4.60761V6.2464H11.1066V7.3826C13.4114 7.50403 15.1405 8.00271 15.1533 8.60044L15.1533 9.84655C15.1404 10.4443 13.4114 10.943 11.1066 11.0644V13.8528H8.92764V11.0644C6.6229 10.943 4.89375 10.4443 4.88095 9.84655L4.88099 8.60044C4.89383 8.00271 6.6229 7.50403 8.92764 7.3826V6.2464H5.6461V4.60761H14.3882ZM10.0171 10.2083C12.4767 10.2083 14.5325 9.78664 15.0355 9.22351C14.6089 8.74598 13.0657 8.37013 11.1066 8.26691V9.45654C10.7555 9.47504 10.391 9.48479 10.0171 9.48479C9.64328 9.48479 9.27879 9.47504 8.92764 9.45654V8.26691C6.96852 8.37013 5.42534 8.74598 4.99871 9.22351C5.5018 9.78664 7.55758 10.2083 10.0171 10.2083Z" fill="#009393"/>
<path fill-rule="evenodd" clip-rule="evenodd" d="M14.3882 4.60761V6.2464H11.1066V7.38261C13.4114 7.50403 15.1405 8.00271 15.1534 8.60044L15.1533 9.84655C15.1405 10.4443 13.4114 10.943 11.1066 11.0644V13.8528H8.92767V11.0644C6.62293 10.943 4.89378 10.4443 4.88098 9.84655L4.88102 8.60044C4.89386 8.00271 6.62293 7.50403 8.92767 7.38261V6.2464H5.64613V4.60761H14.3882ZM15.0356 9.22352C14.5325 9.78664 12.4767 10.2083 10.0172 10.2083C7.5576 10.2083 5.50183 9.78664 4.99873 9.22352C5.42536 8.74598 6.96855 8.37013 8.92767 8.26691V9.45655C9.27882 9.47504 9.64331 9.48479 10.0172 9.48479C10.391 9.48479 10.7555 9.47504 11.1066 9.45655V8.26691C13.0658 8.37013 14.6089 8.74598 15.0356 9.22352Z" fill="white"/>
<circle cx="15" cy="15" r="5" fill="#131419"/>
<path fill-rule="evenodd" clip-rule="evenodd" d="M13.4097 14.3483L15 12.7579L16.5903 14.3483L17.5148 13.4238L15 10.909L12.4852 13.4238L13.4097 14.3483ZM11.8327 14.0782L10.9093 15.0016L11.8327 15.925L12.7561 15.0016L11.8327 14.0782ZM15 17.2445L13.4097 15.6541L12.4852 16.5786L15 19.0934L17.5148 16.5786L16.5903 15.6541L15 17.2445ZM18.1675 14.0783L17.2441 15.0017L18.1675 15.9251L19.0909 15.0017L18.1675 14.0783ZM15.0005 14.0638L15.9379 15.0012L15.0005 15.9386L14.0631 15.0012L14.2247 14.8331L14.3087 14.7556L15.0005 14.0638Z" fill="#F0B90B"/>
</svg>
