<svg width="21" height="20" viewBox="0 0 21 20" fill="none" xmlns="http://www.w3.org/2000/svg">
<path fill-rule="evenodd" clip-rule="evenodd" d="M4.35577 2H15.8756C16.1505 2 16.4044 2.14704 16.5414 2.3856L19.8976 8.22616C20.0717 8.52905 20.02 8.91134 19.7717 9.15696L10.5337 18.2967C10.2344 18.5928 9.75307 18.5928 9.45381 18.2967L0.228291 9.1693C-0.0257343 8.91798 -0.073302 8.52455 0.113496 8.21976L3.701 2.36686C3.84072 2.13892 4.08865 2 4.35577 2ZM14.3882 4.60761V6.2464H11.1066V7.3826C13.4114 7.50403 15.1405 8.00271 15.1533 8.60044L15.1533 9.84655C15.1404 10.4443 13.4114 10.943 11.1066 11.0644V13.8528H8.92764V11.0644C6.6229 10.943 4.89375 10.4443 4.88095 9.84655L4.88099 8.60044C4.89383 8.00271 6.6229 7.50403 8.92764 7.3826V6.2464H5.6461V4.60761H14.3882ZM10.0171 10.2083C12.4767 10.2083 14.5325 9.78664 15.0355 9.22351C14.6089 8.74598 13.0657 8.37013 11.1066 8.26691V9.45654C10.7555 9.47504 10.391 9.48479 10.0171 9.48479C9.64328 9.48479 9.27879 9.47504 8.92764 9.45654V8.26691C6.96852 8.37013 5.42534 8.74598 4.99871 9.22351C5.5018 9.78664 7.55758 10.2083 10.0171 10.2083Z" fill="#009393"/>
<path fill-rule="evenodd" clip-rule="evenodd" d="M14.3882 4.60761V6.2464H11.1066V7.38261C13.4114 7.50403 15.1405 8.00271 15.1534 8.60044L15.1533 9.84655C15.1405 10.4443 13.4114 10.943 11.1066 11.0644V13.8528H8.92767V11.0644C6.62293 10.943 4.89378 10.4443 4.88098 9.84655L4.88102 8.60044C4.89386 8.00271 6.62293 7.50403 8.92767 7.38261V6.2464H5.64613V4.60761H14.3882ZM15.0356 9.22352C14.5325 9.78664 12.4767 10.2083 10.0172 10.2083C7.5576 10.2083 5.50183 9.78664 4.99873 9.22352C5.42536 8.74598 6.96855 8.37013 8.92767 8.26691V9.45655C9.27882 9.47504 9.64331 9.48479 10.0172 9.48479C10.391 9.48479 10.7555 9.47504 11.1066 9.45655V8.26691C13.0658 8.37013 14.6089 8.74598 15.0356 9.22352Z" fill="white"/>
<path d="M17.0315 10L20.0713 15.0231L17.0427 13.7287L17.0315 10Z" fill="#E68F7B"/>
<path d="M14 15.0231L17.0314 10L17.0427 13.7287L14 15.0231Z" fill="#F8EC7C"/>
<path d="M17.0314 16.875L14 15.0229L17.0427 13.7285L17.0314 16.875Z" fill="#6EB87D"/>
<path d="M20.0713 15.0229L17.0427 13.7285L17.0315 16.875L20.0713 15.0229Z" fill="#946BA7"/>
<path d="M17.0315 17.5127L20.0713 15.7108L17.0315 19.9939V17.5127Z" fill="#697CB9"/>
<path d="M17.0314 17.5127L14 15.7108L17.0314 19.9939V17.5127Z" fill="#4FADD0"/>
</svg>
