<svg width="20" height="20" viewBox="0 0 20 20" fill="none" xmlns="http://www.w3.org/2000/svg">
<path fill-rule="evenodd" clip-rule="evenodd" d="M4.35577 2H15.8756C16.1505 2 16.4044 2.14704 16.5414 2.3856L19.8976 8.22616C20.0717 8.52905 20.02 8.91134 19.7717 9.15696L10.5337 18.2967C10.2344 18.5928 9.75307 18.5928 9.45381 18.2967L0.228291 9.1693C-0.0257343 8.91798 -0.073302 8.52455 0.113496 8.21976L3.701 2.36686C3.84072 2.13892 4.08865 2 4.35577 2ZM14.3882 4.60761V6.2464H11.1066V7.3826C13.4114 7.50403 15.1405 8.00271 15.1533 8.60044L15.1533 9.84655C15.1404 10.4443 13.4114 10.943 11.1066 11.0644V13.8528H8.92764V11.0644C6.6229 10.943 4.89375 10.4443 4.88095 9.84655L4.88099 8.60044C4.89383 8.00271 6.6229 7.50403 8.92764 7.3826V6.2464H5.6461V4.60761H14.3882ZM10.0171 10.2083C12.4767 10.2083 14.5325 9.78664 15.0355 9.22351C14.6089 8.74598 13.0657 8.37013 11.1066 8.26691V9.45654C10.7555 9.47504 10.391 9.48479 10.0171 9.48479C9.64328 9.48479 9.27879 9.47504 8.92764 9.45654V8.26691C6.96852 8.37013 5.42534 8.74598 4.99871 9.22351C5.5018 9.78664 7.55758 10.2083 10.0171 10.2083Z" fill="#009393"/>
<path fill-rule="evenodd" clip-rule="evenodd" d="M14.3882 4.60761V6.2464H11.1066V7.38261C13.4114 7.50403 15.1405 8.00271 15.1534 8.60044L15.1533 9.84655C15.1405 10.4443 13.4114 10.943 11.1066 11.0644V13.8528H8.92767V11.0644C6.62293 10.943 4.89378 10.4443 4.88098 9.84655L4.88102 8.60044C4.89386 8.00271 6.62293 7.50403 8.92767 7.38261V6.2464H5.64613V4.60761H14.3882ZM15.0356 9.22352C14.5325 9.78664 12.4767 10.2083 10.0172 10.2083C7.5576 10.2083 5.50183 9.78664 4.99873 9.22352C5.42536 8.74598 6.96855 8.37013 8.92767 8.26691V9.45655C9.27882 9.47504 9.64331 9.48479 10.0172 9.48479C10.391 9.48479 10.7555 9.47504 11.1066 9.45655V8.26691C13.0658 8.37013 14.6089 8.74598 15.0356 9.22352Z" fill="white"/>
<circle cx="15" cy="15" r="5" fill="#EB322A"/>
<path fill-rule="evenodd" clip-rule="evenodd" d="M12.0434 12.0739C12.0878 12.0186 12.1584 11.9913 12.2285 12.0024L17.2478 12.7992C17.2906 12.806 17.3299 12.8266 17.3598 12.858L18.5731 14.1309C18.5962 14.1545 18.6135 14.1839 18.6225 14.2174C18.6256 14.2287 18.6276 14.2403 18.6286 14.252C18.6312 14.2814 18.6271 14.31 18.6176 14.3363C18.6102 14.3566 18.5994 14.376 18.5851 14.3936L14.9401 18.8752C14.8958 18.9296 14.826 18.9564 14.7567 18.9457C14.6874 18.935 14.6289 18.8883 14.6032 18.8231L12.0138 12.2701C11.9878 12.2042 11.9991 12.1293 12.0434 12.0739ZM18.0237 14.1271L17.2257 13.2899L15.9478 14.4198L18.0237 14.1271ZM16.8105 13.1297L12.8762 12.5052L15.3293 14.4394L16.8105 13.1297ZM15.4987 14.8821L17.961 14.5349L15.0889 18.0661L15.4987 14.8821ZM14.7 17.9932L12.6643 12.8412L15.1144 14.7731L14.7 17.9932Z" fill="white"/>
</svg>
