<svg width="78" height="77" viewBox="0 0 78 77" fill="none" xmlns="http://www.w3.org/2000/svg">
<g id="Frame" clip-path="url(#clip0_893_819)">
<path id="Vector" d="M39.0006 6.41675C42.1734 6.41675 45.2749 7.35757 47.9129 9.12026C50.551 10.8829 52.6071 13.3883 53.8212 16.3195C55.0354 19.2508 55.3531 22.4762 54.7341 25.588C54.1151 28.6998 52.5873 31.5581 50.3438 33.8016C48.1004 36.045 45.242 37.5729 42.1302 38.1918C39.0184 38.8108 35.793 38.4931 32.8618 37.279C29.9305 36.0648 27.4252 34.0087 25.6625 31.3707C23.8998 28.7326 22.959 25.6312 22.959 22.4584L22.975 21.7622C23.1544 17.6323 24.9212 13.731 27.9069 10.872C30.8927 8.01303 34.8668 6.41699 39.0006 6.41675Z" fill="white"/>
<path id="Vector_2" d="M45.416 44.9167C49.6705 44.9167 53.7508 46.6068 56.7592 49.6152C59.7676 52.6236 61.4577 56.7039 61.4577 60.9584V64.1667C61.4577 65.8686 60.7816 67.5007 59.5783 68.704C58.3749 69.9074 56.7428 70.5834 55.041 70.5834H22.9577C21.2559 70.5834 19.6238 69.9074 18.4204 68.704C17.2171 67.5007 16.541 65.8686 16.541 64.1667V60.9584C16.541 56.7039 18.2311 52.6236 21.2395 49.6152C24.2479 46.6068 28.3282 44.9167 32.5827 44.9167H45.416Z" fill="white"/>
</g>
<defs>
<clipPath id="clip0_893_819">
<rect width="77" height="77" fill="white" transform="translate(0.5)"/>
</clipPath>
</defs>
</svg>
