<svg width="20" height="20" viewBox="0 0 20 20" fill="none" xmlns="http://www.w3.org/2000/svg">
<g id="Group 427318778">
<path id="Vector" d="M14.1673 6.66683V4.16683C14.1673 3.94582 14.0795 3.73385 13.9232 3.57757C13.767 3.42129 13.555 3.3335 13.334 3.3335H5.00065C4.55862 3.3335 4.1347 3.50909 3.82214 3.82165C3.50958 4.13421 3.33398 4.55814 3.33398 5.00016M3.33398 5.00016C3.33398 5.44219 3.50958 5.86611 3.82214 6.17867C4.1347 6.49123 4.55862 6.66683 5.00065 6.66683H15.0007C15.2217 6.66683 15.4336 6.75463 15.5899 6.91091C15.7462 7.06719 15.834 7.27915 15.834 7.50016V10.0002M3.33398 5.00016V15.0002C3.33398 15.4422 3.50958 15.8661 3.82214 16.1787C4.1347 16.4912 4.55862 16.6668 5.00065 16.6668H15.0007C15.2217 16.6668 15.4336 16.579 15.5899 16.4228C15.7462 16.2665 15.834 16.0545 15.834 15.8335V13.3335" stroke="white" stroke-width="2" stroke-linecap="round" stroke-linejoin="round"/>
<path id="Vector_2" d="M16.666 10V13.3333H13.3327C12.8907 13.3333 12.4667 13.1577 12.1542 12.8452C11.8416 12.5326 11.666 12.1087 11.666 11.6667C11.666 11.2246 11.8416 10.8007 12.1542 10.4882C12.4667 10.1756 12.8907 10 13.3327 10H16.666Z" stroke="white" stroke-width="2" stroke-linecap="round" stroke-linejoin="round"/>
</g>
</svg>
